<svg xmlns="http://www.w3.org/2000/svg" viewBox="0 0 520 440" role="img" aria-hidden="true" focusable="false">
  <g fill="#E3E6EB">
    <circle cx="313.5" cy="37.0" r="2.6"/>
    <circle cx="324.5" cy="37.0" r="2.6"/>
    <circle cx="335.5" cy="37.0" r="2.6"/>
    <circle cx="286.0" cy="48.0" r="2.6"/>
    <circle cx="297.0" cy="48.0" r="2.6"/>
    <circle cx="308.0" cy="48.0" r="2.6"/>
    <circle cx="319.0" cy="48.0" r="2.6"/>
    <circle cx="330.0" cy="48.0" r="2.6"/>
    <circle cx="341.0" cy="48.0" r="2.6"/>
    <circle cx="352.0" cy="48.0" r="2.6"/>
    <circle cx="363.0" cy="48.0" r="2.6"/>
    <circle cx="374.0" cy="48.0" r="2.6"/>
    <circle cx="385.0" cy="48.0" r="2.6"/>
    <circle cx="236.5" cy="59.0" r="2.6"/>
    <circle cx="247.5" cy="59.0" r="2.6"/>
    <circle cx="258.5" cy="59.0" r="2.6"/>
    <circle cx="269.5" cy="59.0" r="2.6"/>
    <circle cx="280.5" cy="59.0" r="2.6"/>
    <circle cx="291.5" cy="59.0" r="2.6"/>
    <circle cx="302.5" cy="59.0" r="2.6"/>
    <circle cx="313.5" cy="59.0" r="2.6"/>
    <circle cx="324.5" cy="59.0" r="2.6"/>
    <circle cx="335.5" cy="59.0" r="2.6"/>
    <circle cx="346.5" cy="59.0" r="2.6"/>
    <circle cx="357.5" cy="59.0" r="2.6"/>
    <circle cx="368.5" cy="59.0" r="2.6"/>
    <circle cx="379.5" cy="59.0" r="2.6"/>
    <circle cx="390.5" cy="59.0" r="2.6"/>
    <circle cx="231.0" cy="70.0" r="2.6"/>
    <circle cx="242.0" cy="70.0" r="2.6"/>
    <circle cx="253.0" cy="70.0" r="2.6"/>
    <circle cx="264.0" cy="70.0" r="2.6"/>
    <circle cx="275.0" cy="70.0" r="2.6"/>
    <circle cx="286.0" cy="70.0" r="2.6"/>
    <circle cx="297.0" cy="70.0" r="2.6"/>
    <circle cx="308.0" cy="70.0" r="2.6"/>
    <circle cx="319.0" cy="70.0" r="2.6"/>
    <circle cx="330.0" cy="70.0" r="2.6"/>
    <circle cx="341.0" cy="70.0" r="2.6"/>
    <circle cx="352.0" cy="70.0" r="2.6"/>
    <circle cx="363.0" cy="70.0" r="2.6"/>
    <circle cx="374.0" cy="70.0" r="2.6"/>
    <circle cx="385.0" cy="70.0" r="2.6"/>
    <circle cx="396.0" cy="70.0" r="2.6"/>
    <circle cx="225.5" cy="81.0" r="2.6"/>
    <circle cx="236.5" cy="81.0" r="2.6"/>
    <circle cx="247.5" cy="81.0" r="2.6"/>
    <circle cx="258.5" cy="81.0" r="2.6"/>
    <circle cx="269.5" cy="81.0" r="2.6"/>
    <circle cx="280.5" cy="81.0" r="2.6"/>
    <circle cx="291.5" cy="81.0" r="2.6"/>
    <circle cx="302.5" cy="81.0" r="2.6"/>
    <circle cx="313.5" cy="81.0" r="2.6"/>
    <circle cx="324.5" cy="81.0" r="2.6"/>
    <circle cx="335.5" cy="81.0" r="2.6"/>
    <circle cx="346.5" cy="81.0" r="2.6"/>
    <circle cx="357.5" cy="81.0" r="2.6"/>
    <circle cx="368.5" cy="81.0" r="2.6"/>
    <circle cx="379.5" cy="81.0" r="2.6"/>
    <circle cx="390.5" cy="81.0" r="2.6"/>
    <circle cx="176.0" cy="92.0" r="2.6"/>
    <circle cx="187.0" cy="92.0" r="2.6"/>
    <circle cx="198.0" cy="92.0" r="2.6"/>
    <circle cx="220.0" cy="92.0" r="2.6"/>
    <circle cx="231.0" cy="92.0" r="2.6"/>
    <circle cx="242.0" cy="92.0" r="2.6"/>
    <circle cx="253.0" cy="92.0" r="2.6"/>
    <circle cx="264.0" cy="92.0" r="2.6"/>
    <circle cx="275.0" cy="92.0" r="2.6"/>
    <circle cx="286.0" cy="92.0" r="2.6"/>
    <circle cx="297.0" cy="92.0" r="2.6"/>
    <circle cx="308.0" cy="92.0" r="2.6"/>
    <circle cx="319.0" cy="92.0" r="2.6"/>
    <circle cx="330.0" cy="92.0" r="2.6"/>
    <circle cx="341.0" cy="92.0" r="2.6"/>
    <circle cx="352.0" cy="92.0" r="2.6"/>
    <circle cx="363.0" cy="92.0" r="2.6"/>
    <circle cx="374.0" cy="92.0" r="2.6"/>
    <circle cx="385.0" cy="92.0" r="2.6"/>
    <circle cx="396.0" cy="92.0" r="2.6"/>
    <circle cx="407.0" cy="92.0" r="2.6"/>
    <circle cx="159.5" cy="103.0" r="2.6"/>
    <circle cx="170.5" cy="103.0" r="2.6"/>
    <circle cx="181.5" cy="103.0" r="2.6"/>
    <circle cx="192.5" cy="103.0" r="2.6"/>
    <circle cx="203.5" cy="103.0" r="2.6"/>
    <circle cx="214.5" cy="103.0" r="2.6"/>
    <circle cx="225.5" cy="103.0" r="2.6"/>
    <circle cx="236.5" cy="103.0" r="2.6"/>
    <circle cx="247.5" cy="103.0" r="2.6"/>
    <circle cx="258.5" cy="103.0" r="2.6"/>
    <circle cx="269.5" cy="103.0" r="2.6"/>
    <circle cx="280.5" cy="103.0" r="2.6"/>
    <circle cx="291.5" cy="103.0" r="2.6"/>
    <circle cx="302.5" cy="103.0" r="2.6"/>
    <circle cx="313.5" cy="103.0" r="2.6"/>
    <circle cx="324.5" cy="103.0" r="2.6"/>
    <circle cx="335.5" cy="103.0" r="2.6"/>
    <circle cx="346.5" cy="103.0" r="2.6"/>
    <circle cx="357.5" cy="103.0" r="2.6"/>
    <circle cx="368.5" cy="103.0" r="2.6"/>
    <circle cx="379.5" cy="103.0" r="2.6"/>
    <circle cx="390.5" cy="103.0" r="2.6"/>
    <circle cx="401.5" cy="103.0" r="2.6"/>
    <circle cx="154.0" cy="114.0" r="2.6"/>
    <circle cx="165.0" cy="114.0" r="2.6"/>
    <circle cx="176.0" cy="114.0" r="2.6"/>
    <circle cx="187.0" cy="114.0" r="2.6"/>
    <circle cx="198.0" cy="114.0" r="2.6"/>
    <circle cx="209.0" cy="114.0" r="2.6"/>
    <circle cx="220.0" cy="114.0" r="2.6"/>
    <circle cx="231.0" cy="114.0" r="2.6"/>
    <circle cx="242.0" cy="114.0" r="2.6"/>
    <circle cx="253.0" cy="114.0" r="2.6"/>
    <circle cx="264.0" cy="114.0" r="2.6"/>
    <circle cx="275.0" cy="114.0" r="2.6"/>
    <circle cx="286.0" cy="114.0" r="2.6"/>
    <circle cx="297.0" cy="114.0" r="2.6"/>
    <circle cx="308.0" cy="114.0" r="2.6"/>
    <circle cx="319.0" cy="114.0" r="2.6"/>
    <circle cx="330.0" cy="114.0" r="2.6"/>
    <circle cx="341.0" cy="114.0" r="2.6"/>
    <circle cx="352.0" cy="114.0" r="2.6"/>
    <circle cx="363.0" cy="114.0" r="2.6"/>
    <circle cx="374.0" cy="114.0" r="2.6"/>
    <circle cx="385.0" cy="114.0" r="2.6"/>
    <circle cx="396.0" cy="114.0" r="2.6"/>
    <circle cx="407.0" cy="114.0" r="2.6"/>
    <circle cx="159.5" cy="125.0" r="2.6"/>
    <circle cx="170.5" cy="125.0" r="2.6"/>
    <circle cx="181.5" cy="125.0" r="2.6"/>
    <circle cx="192.5" cy="125.0" r="2.6"/>
    <circle cx="203.5" cy="125.0" r="2.6"/>
    <circle cx="214.5" cy="125.0" r="2.6"/>
    <circle cx="225.5" cy="125.0" r="2.6"/>
    <circle cx="236.5" cy="125.0" r="2.6"/>
    <circle cx="247.5" cy="125.0" r="2.6"/>
    <circle cx="258.5" cy="125.0" r="2.6"/>
    <circle cx="269.5" cy="125.0" r="2.6"/>
    <circle cx="280.5" cy="125.0" r="2.6"/>
    <circle cx="291.5" cy="125.0" r="2.6"/>
    <circle cx="302.5" cy="125.0" r="2.6"/>
    <circle cx="313.5" cy="125.0" r="2.6"/>
    <circle cx="324.5" cy="125.0" r="2.6"/>
    <circle cx="335.5" cy="125.0" r="2.6"/>
    <circle cx="346.5" cy="125.0" r="2.6"/>
    <circle cx="357.5" cy="125.0" r="2.6"/>
    <circle cx="368.5" cy="125.0" r="2.6"/>
    <circle cx="379.5" cy="125.0" r="2.6"/>
    <circle cx="390.5" cy="125.0" r="2.6"/>
    <circle cx="401.5" cy="125.0" r="2.6"/>
    <circle cx="412.5" cy="125.0" r="2.6"/>
    <circle cx="154.0" cy="136.0" r="2.6"/>
    <circle cx="165.0" cy="136.0" r="2.6"/>
    <circle cx="176.0" cy="136.0" r="2.6"/>
    <circle cx="187.0" cy="136.0" r="2.6"/>
    <circle cx="198.0" cy="136.0" r="2.6"/>
    <circle cx="209.0" cy="136.0" r="2.6"/>
    <circle cx="220.0" cy="136.0" r="2.6"/>
    <circle cx="231.0" cy="136.0" r="2.6"/>
    <circle cx="242.0" cy="136.0" r="2.6"/>
    <circle cx="253.0" cy="136.0" r="2.6"/>
    <circle cx="264.0" cy="136.0" r="2.6"/>
    <circle cx="275.0" cy="136.0" r="2.6"/>
    <circle cx="286.0" cy="136.0" r="2.6"/>
    <circle cx="297.0" cy="136.0" r="2.6"/>
    <circle cx="308.0" cy="136.0" r="2.6"/>
    <circle cx="319.0" cy="136.0" r="2.6"/>
    <circle cx="330.0" cy="136.0" r="2.6"/>
    <circle cx="341.0" cy="136.0" r="2.6"/>
    <circle cx="352.0" cy="136.0" r="2.6"/>
    <circle cx="363.0" cy="136.0" r="2.6"/>
    <circle cx="374.0" cy="136.0" r="2.6"/>
    <circle cx="385.0" cy="136.0" r="2.6"/>
    <circle cx="396.0" cy="136.0" r="2.6"/>
    <circle cx="407.0" cy="136.0" r="2.6"/>
    <circle cx="418.0" cy="136.0" r="2.6"/>
    <circle cx="148.5" cy="147.0" r="2.6"/>
    <circle cx="159.5" cy="147.0" r="2.6"/>
    <circle cx="170.5" cy="147.0" r="2.6"/>
    <circle cx="181.5" cy="147.0" r="2.6"/>
    <circle cx="192.5" cy="147.0" r="2.6"/>
    <circle cx="203.5" cy="147.0" r="2.6"/>
    <circle cx="214.5" cy="147.0" r="2.6"/>
    <circle cx="225.5" cy="147.0" r="2.6"/>
    <circle cx="236.5" cy="147.0" r="2.6"/>
    <circle cx="247.5" cy="147.0" r="2.6"/>
    <circle cx="258.5" cy="147.0" r="2.6"/>
    <circle cx="269.5" cy="147.0" r="2.6"/>
    <circle cx="280.5" cy="147.0" r="2.6"/>
    <circle cx="291.5" cy="147.0" r="2.6"/>
    <circle cx="302.5" cy="147.0" r="2.6"/>
    <circle cx="313.5" cy="147.0" r="2.6"/>
    <circle cx="324.5" cy="147.0" r="2.6"/>
    <circle cx="335.5" cy="147.0" r="2.6"/>
    <circle cx="346.5" cy="147.0" r="2.6"/>
    <circle cx="357.5" cy="147.0" r="2.6"/>
    <circle cx="368.5" cy="147.0" r="2.6"/>
    <circle cx="379.5" cy="147.0" r="2.6"/>
    <circle cx="390.5" cy="147.0" r="2.6"/>
    <circle cx="401.5" cy="147.0" r="2.6"/>
    <circle cx="412.5" cy="147.0" r="2.6"/>
    <circle cx="423.5" cy="147.0" r="2.6"/>
    <circle cx="143.0" cy="158.0" r="2.6"/>
    <circle cx="154.0" cy="158.0" r="2.6"/>
    <circle cx="165.0" cy="158.0" r="2.6"/>
    <circle cx="176.0" cy="158.0" r="2.6"/>
    <circle cx="187.0" cy="158.0" r="2.6"/>
    <circle cx="198.0" cy="158.0" r="2.6"/>
    <circle cx="209.0" cy="158.0" r="2.6"/>
    <circle cx="220.0" cy="158.0" r="2.6"/>
    <circle cx="231.0" cy="158.0" r="2.6"/>
    <circle cx="242.0" cy="158.0" r="2.6"/>
    <circle cx="253.0" cy="158.0" r="2.6"/>
    <circle cx="264.0" cy="158.0" r="2.6"/>
    <circle cx="275.0" cy="158.0" r="2.6"/>
    <circle cx="286.0" cy="158.0" r="2.6"/>
    <circle cx="297.0" cy="158.0" r="2.6"/>
    <circle cx="308.0" cy="158.0" r="2.6"/>
    <circle cx="319.0" cy="158.0" r="2.6"/>
    <circle cx="330.0" cy="158.0" r="2.6"/>
    <circle cx="341.0" cy="158.0" r="2.6"/>
    <circle cx="352.0" cy="158.0" r="2.6"/>
    <circle cx="363.0" cy="158.0" r="2.6"/>
    <circle cx="374.0" cy="158.0" r="2.6"/>
    <circle cx="385.0" cy="158.0" r="2.6"/>
    <circle cx="396.0" cy="158.0" r="2.6"/>
    <circle cx="407.0" cy="158.0" r="2.6"/>
    <circle cx="418.0" cy="158.0" r="2.6"/>
    <circle cx="429.0" cy="158.0" r="2.6"/>
    <circle cx="440.0" cy="158.0" r="2.6"/>
    <circle cx="451.0" cy="158.0" r="2.6"/>
    <circle cx="137.5" cy="169.0" r="2.6"/>
    <circle cx="148.5" cy="169.0" r="2.6"/>
    <circle cx="159.5" cy="169.0" r="2.6"/>
    <circle cx="170.5" cy="169.0" r="2.6"/>
    <circle cx="181.5" cy="169.0" r="2.6"/>
    <circle cx="192.5" cy="169.0" r="2.6"/>
    <circle cx="203.5" cy="169.0" r="2.6"/>
    <circle cx="214.5" cy="169.0" r="2.6"/>
    <circle cx="225.5" cy="169.0" r="2.6"/>
    <circle cx="236.5" cy="169.0" r="2.6"/>
    <circle cx="247.5" cy="169.0" r="2.6"/>
    <circle cx="258.5" cy="169.0" r="2.6"/>
    <circle cx="269.5" cy="169.0" r="2.6"/>
    <circle cx="280.5" cy="169.0" r="2.6"/>
    <circle cx="291.5" cy="169.0" r="2.6"/>
    <circle cx="302.5" cy="169.0" r="2.6"/>
    <circle cx="313.5" cy="169.0" r="2.6"/>
    <circle cx="324.5" cy="169.0" r="2.6"/>
    <circle cx="335.5" cy="169.0" r="2.6"/>
    <circle cx="346.5" cy="169.0" r="2.6"/>
    <circle cx="357.5" cy="169.0" r="2.6"/>
    <circle cx="368.5" cy="169.0" r="2.6"/>
    <circle cx="379.5" cy="169.0" r="2.6"/>
    <circle cx="390.5" cy="169.0" r="2.6"/>
    <circle cx="401.5" cy="169.0" r="2.6"/>
    <circle cx="412.5" cy="169.0" r="2.6"/>
    <circle cx="423.5" cy="169.0" r="2.6"/>
    <circle cx="434.5" cy="169.0" r="2.6"/>
    <circle cx="445.5" cy="169.0" r="2.6"/>
    <circle cx="456.5" cy="169.0" r="2.6"/>
    <circle cx="132.0" cy="180.0" r="2.6"/>
    <circle cx="143.0" cy="180.0" r="2.6"/>
    <circle cx="154.0" cy="180.0" r="2.6"/>
    <circle cx="165.0" cy="180.0" r="2.6"/>
    <circle cx="176.0" cy="180.0" r="2.6"/>
    <circle cx="187.0" cy="180.0" r="2.6"/>
    <circle cx="198.0" cy="180.0" r="2.6"/>
    <circle cx="209.0" cy="180.0" r="2.6"/>
    <circle cx="220.0" cy="180.0" r="2.6"/>
    <circle cx="231.0" cy="180.0" r="2.6"/>
    <circle cx="242.0" cy="180.0" r="2.6"/>
    <circle cx="253.0" cy="180.0" r="2.6"/>
    <circle cx="264.0" cy="180.0" r="2.6"/>
    <circle cx="275.0" cy="180.0" r="2.6"/>
    <circle cx="286.0" cy="180.0" r="2.6"/>
    <circle cx="297.0" cy="180.0" r="2.6"/>
    <circle cx="308.0" cy="180.0" r="2.6"/>
    <circle cx="319.0" cy="180.0" r="2.6"/>
    <circle cx="330.0" cy="180.0" r="2.6"/>
    <circle cx="341.0" cy="180.0" r="2.6"/>
    <circle cx="352.0" cy="180.0" r="2.6"/>
    <circle cx="363.0" cy="180.0" r="2.6"/>
    <circle cx="374.0" cy="180.0" r="2.6"/>
    <circle cx="385.0" cy="180.0" r="2.6"/>
    <circle cx="396.0" cy="180.0" r="2.6"/>
    <circle cx="407.0" cy="180.0" r="2.6"/>
    <circle cx="418.0" cy="180.0" r="2.6"/>
    <circle cx="429.0" cy="180.0" r="2.6"/>
    <circle cx="440.0" cy="180.0" r="2.6"/>
    <circle cx="451.0" cy="180.0" r="2.6"/>
    <circle cx="82.5" cy="191.0" r="2.6"/>
    <circle cx="104.5" cy="191.0" r="2.6"/>
    <circle cx="115.5" cy="191.0" r="2.6"/>
    <circle cx="126.5" cy="191.0" r="2.6"/>
    <circle cx="137.5" cy="191.0" r="2.6"/>
    <circle cx="148.5" cy="191.0" r="2.6"/>
    <circle cx="159.5" cy="191.0" r="2.6"/>
    <circle cx="170.5" cy="191.0" r="2.6"/>
    <circle cx="181.5" cy="191.0" r="2.6"/>
    <circle cx="192.5" cy="191.0" r="2.6"/>
    <circle cx="203.5" cy="191.0" r="2.6"/>
    <circle cx="214.5" cy="191.0" r="2.6"/>
    <circle cx="225.5" cy="191.0" r="2.6"/>
    <circle cx="236.5" cy="191.0" r="2.6"/>
    <circle cx="247.5" cy="191.0" r="2.6"/>
    <circle cx="258.5" cy="191.0" r="2.6"/>
    <circle cx="269.5" cy="191.0" r="2.6"/>
    <circle cx="280.5" cy="191.0" r="2.6"/>
    <circle cx="291.5" cy="191.0" r="2.6"/>
    <circle cx="302.5" cy="191.0" r="2.6"/>
    <circle cx="313.5" cy="191.0" r="2.6"/>
    <circle cx="324.5" cy="191.0" r="2.6"/>
    <circle cx="335.5" cy="191.0" r="2.6"/>
    <circle cx="346.5" cy="191.0" r="2.6"/>
    <circle cx="357.5" cy="191.0" r="2.6"/>
    <circle cx="368.5" cy="191.0" r="2.6"/>
    <circle cx="379.5" cy="191.0" r="2.6"/>
    <circle cx="390.5" cy="191.0" r="2.6"/>
    <circle cx="401.5" cy="191.0" r="2.6"/>
    <circle cx="412.5" cy="191.0" r="2.6"/>
    <circle cx="423.5" cy="191.0" r="2.6"/>
    <circle cx="434.5" cy="191.0" r="2.6"/>
    <circle cx="445.5" cy="191.0" r="2.6"/>
    <circle cx="66.0" cy="202.0" r="2.6"/>
    <circle cx="77.0" cy="202.0" r="2.6"/>
    <circle cx="88.0" cy="202.0" r="2.6"/>
    <circle cx="99.0" cy="202.0" r="2.6"/>
    <circle cx="110.0" cy="202.0" r="2.6"/>
    <circle cx="121.0" cy="202.0" r="2.6"/>
    <circle cx="132.0" cy="202.0" r="2.6"/>
    <circle cx="143.0" cy="202.0" r="2.6"/>
    <circle cx="154.0" cy="202.0" r="2.6"/>
    <circle cx="165.0" cy="202.0" r="2.6"/>
    <circle cx="176.0" cy="202.0" r="2.6"/>
    <circle cx="187.0" cy="202.0" r="2.6"/>
    <circle cx="198.0" cy="202.0" r="2.6"/>
    <circle cx="209.0" cy="202.0" r="2.6"/>
    <circle cx="220.0" cy="202.0" r="2.6"/>
    <circle cx="231.0" cy="202.0" r="2.6"/>
    <circle cx="242.0" cy="202.0" r="2.6"/>
    <circle cx="253.0" cy="202.0" r="2.6"/>
    <circle cx="264.0" cy="202.0" r="2.6"/>
    <circle cx="275.0" cy="202.0" r="2.6"/>
    <circle cx="286.0" cy="202.0" r="2.6"/>
    <circle cx="297.0" cy="202.0" r="2.6"/>
    <circle cx="308.0" cy="202.0" r="2.6"/>
    <circle cx="319.0" cy="202.0" r="2.6"/>
    <circle cx="330.0" cy="202.0" r="2.6"/>
    <circle cx="341.0" cy="202.0" r="2.6"/>
    <circle cx="352.0" cy="202.0" r="2.6"/>
    <circle cx="363.0" cy="202.0" r="2.6"/>
    <circle cx="374.0" cy="202.0" r="2.6"/>
    <circle cx="385.0" cy="202.0" r="2.6"/>
    <circle cx="396.0" cy="202.0" r="2.6"/>
    <circle cx="407.0" cy="202.0" r="2.6"/>
    <circle cx="418.0" cy="202.0" r="2.6"/>
    <circle cx="429.0" cy="202.0" r="2.6"/>
    <circle cx="71.5" cy="213.0" r="2.6"/>
    <circle cx="82.5" cy="213.0" r="2.6"/>
    <circle cx="93.5" cy="213.0" r="2.6"/>
    <circle cx="104.5" cy="213.0" r="2.6"/>
    <circle cx="115.5" cy="213.0" r="2.6"/>
    <circle cx="126.5" cy="213.0" r="2.6"/>
    <circle cx="137.5" cy="213.0" r="2.6"/>
    <circle cx="148.5" cy="213.0" r="2.6"/>
    <circle cx="159.5" cy="213.0" r="2.6"/>
    <circle cx="170.5" cy="213.0" r="2.6"/>
    <circle cx="181.5" cy="213.0" r="2.6"/>
    <circle cx="192.5" cy="213.0" r="2.6"/>
    <circle cx="203.5" cy="213.0" r="2.6"/>
    <circle cx="214.5" cy="213.0" r="2.6"/>
    <circle cx="225.5" cy="213.0" r="2.6"/>
    <circle cx="236.5" cy="213.0" r="2.6"/>
    <circle cx="247.5" cy="213.0" r="2.6"/>
    <circle cx="258.5" cy="213.0" r="2.6"/>
    <circle cx="269.5" cy="213.0" r="2.6"/>
    <circle cx="280.5" cy="213.0" r="2.6"/>
    <circle cx="291.5" cy="213.0" r="2.6"/>
    <circle cx="302.5" cy="213.0" r="2.6"/>
    <circle cx="313.5" cy="213.0" r="2.6"/>
    <circle cx="324.5" cy="213.0" r="2.6"/>
    <circle cx="335.5" cy="213.0" r="2.6"/>
    <circle cx="346.5" cy="213.0" r="2.6"/>
    <circle cx="357.5" cy="213.0" r="2.6"/>
    <circle cx="368.5" cy="213.0" r="2.6"/>
    <circle cx="379.5" cy="213.0" r="2.6"/>
    <circle cx="390.5" cy="213.0" r="2.6"/>
    <circle cx="401.5" cy="213.0" r="2.6"/>
    <circle cx="412.5" cy="213.0" r="2.6"/>
    <circle cx="434.5" cy="213.0" r="2.6"/>
    <circle cx="445.5" cy="213.0" r="2.6"/>
    <circle cx="456.5" cy="213.0" r="2.6"/>
    <circle cx="467.5" cy="213.0" r="2.6"/>
    <circle cx="478.5" cy="213.0" r="2.6"/>
    <circle cx="88.0" cy="224.0" r="2.6"/>
    <circle cx="99.0" cy="224.0" r="2.6"/>
    <circle cx="110.0" cy="224.0" r="2.6"/>
    <circle cx="121.0" cy="224.0" r="2.6"/>
    <circle cx="132.0" cy="224.0" r="2.6"/>
    <circle cx="143.0" cy="224.0" r="2.6"/>
    <circle cx="154.0" cy="224.0" r="2.6"/>
    <circle cx="165.0" cy="224.0" r="2.6"/>
    <circle cx="176.0" cy="224.0" r="2.6"/>
    <circle cx="187.0" cy="224.0" r="2.6"/>
    <circle cx="198.0" cy="224.0" r="2.6"/>
    <circle cx="209.0" cy="224.0" r="2.6"/>
    <circle cx="220.0" cy="224.0" r="2.6"/>
    <circle cx="231.0" cy="224.0" r="2.6"/>
    <circle cx="242.0" cy="224.0" r="2.6"/>
    <circle cx="253.0" cy="224.0" r="2.6"/>
    <circle cx="264.0" cy="224.0" r="2.6"/>
    <circle cx="275.0" cy="224.0" r="2.6"/>
    <circle cx="286.0" cy="224.0" r="2.6"/>
    <circle cx="297.0" cy="224.0" r="2.6"/>
    <circle cx="308.0" cy="224.0" r="2.6"/>
    <circle cx="319.0" cy="224.0" r="2.6"/>
    <circle cx="330.0" cy="224.0" r="2.6"/>
    <circle cx="341.0" cy="224.0" r="2.6"/>
    <circle cx="352.0" cy="224.0" r="2.6"/>
    <circle cx="363.0" cy="224.0" r="2.6"/>
    <circle cx="374.0" cy="224.0" r="2.6"/>
    <circle cx="385.0" cy="224.0" r="2.6"/>
    <circle cx="396.0" cy="224.0" r="2.6"/>
    <circle cx="407.0" cy="224.0" r="2.6"/>
    <circle cx="418.0" cy="224.0" r="2.6"/>
    <circle cx="429.0" cy="224.0" r="2.6"/>
    <circle cx="440.0" cy="224.0" r="2.6"/>
    <circle cx="451.0" cy="224.0" r="2.6"/>
    <circle cx="462.0" cy="224.0" r="2.6"/>
    <circle cx="473.0" cy="224.0" r="2.6"/>
    <circle cx="484.0" cy="224.0" r="2.6"/>
    <circle cx="93.5" cy="235.0" r="2.6"/>
    <circle cx="104.5" cy="235.0" r="2.6"/>
    <circle cx="115.5" cy="235.0" r="2.6"/>
    <circle cx="126.5" cy="235.0" r="2.6"/>
    <circle cx="137.5" cy="235.0" r="2.6"/>
    <circle cx="148.5" cy="235.0" r="2.6"/>
    <circle cx="159.5" cy="235.0" r="2.6"/>
    <circle cx="170.5" cy="235.0" r="2.6"/>
    <circle cx="181.5" cy="235.0" r="2.6"/>
    <circle cx="192.5" cy="235.0" r="2.6"/>
    <circle cx="203.5" cy="235.0" r="2.6"/>
    <circle cx="214.5" cy="235.0" r="2.6"/>
    <circle cx="225.5" cy="235.0" r="2.6"/>
    <circle cx="236.5" cy="235.0" r="2.6"/>
    <circle cx="247.5" cy="235.0" r="2.6"/>
    <circle cx="258.5" cy="235.0" r="2.6"/>
    <circle cx="269.5" cy="235.0" r="2.6"/>
    <circle cx="280.5" cy="235.0" r="2.6"/>
    <circle cx="291.5" cy="235.0" r="2.6"/>
    <circle cx="302.5" cy="235.0" r="2.6"/>
    <circle cx="313.5" cy="235.0" r="2.6"/>
    <circle cx="324.5" cy="235.0" r="2.6"/>
    <circle cx="335.5" cy="235.0" r="2.6"/>
    <circle cx="346.5" cy="235.0" r="2.6"/>
    <circle cx="357.5" cy="235.0" r="2.6"/>
    <circle cx="368.5" cy="235.0" r="2.6"/>
    <circle cx="379.5" cy="235.0" r="2.6"/>
    <circle cx="390.5" cy="235.0" r="2.6"/>
    <circle cx="401.5" cy="235.0" r="2.6"/>
    <circle cx="423.5" cy="235.0" r="2.6"/>
    <circle cx="434.5" cy="235.0" r="2.6"/>
    <circle cx="445.5" cy="235.0" r="2.6"/>
    <circle cx="456.5" cy="235.0" r="2.6"/>
    <circle cx="467.5" cy="235.0" r="2.6"/>
    <circle cx="478.5" cy="235.0" r="2.6"/>
    <circle cx="489.5" cy="235.0" r="2.6"/>
    <circle cx="77.0" cy="246.0" r="2.6"/>
    <circle cx="88.0" cy="246.0" r="2.6"/>
    <circle cx="99.0" cy="246.0" r="2.6"/>
    <circle cx="110.0" cy="246.0" r="2.6"/>
    <circle cx="121.0" cy="246.0" r="2.6"/>
    <circle cx="132.0" cy="246.0" r="2.6"/>
    <circle cx="143.0" cy="246.0" r="2.6"/>
    <circle cx="154.0" cy="246.0" r="2.6"/>
    <circle cx="165.0" cy="246.0" r="2.6"/>
    <circle cx="176.0" cy="246.0" r="2.6"/>
    <circle cx="187.0" cy="246.0" r="2.6"/>
    <circle cx="198.0" cy="246.0" r="2.6"/>
    <circle cx="209.0" cy="246.0" r="2.6"/>
    <circle cx="220.0" cy="246.0" r="2.6"/>
    <circle cx="231.0" cy="246.0" r="2.6"/>
    <circle cx="242.0" cy="246.0" r="2.6"/>
    <circle cx="253.0" cy="246.0" r="2.6"/>
    <circle cx="264.0" cy="246.0" r="2.6"/>
    <circle cx="275.0" cy="246.0" r="2.6"/>
    <circle cx="286.0" cy="246.0" r="2.6"/>
    <circle cx="297.0" cy="246.0" r="2.6"/>
    <circle cx="308.0" cy="246.0" r="2.6"/>
    <circle cx="319.0" cy="246.0" r="2.6"/>
    <circle cx="330.0" cy="246.0" r="2.6"/>
    <circle cx="341.0" cy="246.0" r="2.6"/>
    <circle cx="352.0" cy="246.0" r="2.6"/>
    <circle cx="363.0" cy="246.0" r="2.6"/>
    <circle cx="374.0" cy="246.0" r="2.6"/>
    <circle cx="385.0" cy="246.0" r="2.6"/>
    <circle cx="396.0" cy="246.0" r="2.6"/>
    <circle cx="407.0" cy="246.0" r="2.6"/>
    <circle cx="418.0" cy="246.0" r="2.6"/>
    <circle cx="429.0" cy="246.0" r="2.6"/>
    <circle cx="440.0" cy="246.0" r="2.6"/>
    <circle cx="451.0" cy="246.0" r="2.6"/>
    <circle cx="462.0" cy="246.0" r="2.6"/>
    <circle cx="473.0" cy="246.0" r="2.6"/>
    <circle cx="484.0" cy="246.0" r="2.6"/>
    <circle cx="49.5" cy="257.0" r="2.6"/>
    <circle cx="60.5" cy="257.0" r="2.6"/>
    <circle cx="71.5" cy="257.0" r="2.6"/>
    <circle cx="82.5" cy="257.0" r="2.6"/>
    <circle cx="93.5" cy="257.0" r="2.6"/>
    <circle cx="104.5" cy="257.0" r="2.6"/>
    <circle cx="115.5" cy="257.0" r="2.6"/>
    <circle cx="126.5" cy="257.0" r="2.6"/>
    <circle cx="137.5" cy="257.0" r="2.6"/>
    <circle cx="148.5" cy="257.0" r="2.6"/>
    <circle cx="159.5" cy="257.0" r="2.6"/>
    <circle cx="170.5" cy="257.0" r="2.6"/>
    <circle cx="181.5" cy="257.0" r="2.6"/>
    <circle cx="192.5" cy="257.0" r="2.6"/>
    <circle cx="203.5" cy="257.0" r="2.6"/>
    <circle cx="214.5" cy="257.0" r="2.6"/>
    <circle cx="225.5" cy="257.0" r="2.6"/>
    <circle cx="236.5" cy="257.0" r="2.6"/>
    <circle cx="247.5" cy="257.0" r="2.6"/>
    <circle cx="258.5" cy="257.0" r="2.6"/>
    <circle cx="280.5" cy="257.0" r="2.6"/>
    <circle cx="291.5" cy="257.0" r="2.6"/>
    <circle cx="302.5" cy="257.0" r="2.6"/>
    <circle cx="313.5" cy="257.0" r="2.6"/>
    <circle cx="324.5" cy="257.0" r="2.6"/>
    <circle cx="335.5" cy="257.0" r="2.6"/>
    <circle cx="346.5" cy="257.0" r="2.6"/>
    <circle cx="357.5" cy="257.0" r="2.6"/>
    <circle cx="368.5" cy="257.0" r="2.6"/>
    <circle cx="379.5" cy="257.0" r="2.6"/>
    <circle cx="401.5" cy="257.0" r="2.6"/>
    <circle cx="412.5" cy="257.0" r="2.6"/>
    <circle cx="423.5" cy="257.0" r="2.6"/>
    <circle cx="434.5" cy="257.0" r="2.6"/>
    <circle cx="445.5" cy="257.0" r="2.6"/>
    <circle cx="456.5" cy="257.0" r="2.6"/>
    <circle cx="478.5" cy="257.0" r="2.6"/>
    <circle cx="489.5" cy="257.0" r="2.6"/>
    <circle cx="33.0" cy="268.0" r="2.6"/>
    <circle cx="44.0" cy="268.0" r="2.6"/>
    <circle cx="55.0" cy="268.0" r="2.6"/>
    <circle cx="66.0" cy="268.0" r="2.6"/>
    <circle cx="77.0" cy="268.0" r="2.6"/>
    <circle cx="88.0" cy="268.0" r="2.6"/>
    <circle cx="99.0" cy="268.0" r="2.6"/>
    <circle cx="110.0" cy="268.0" r="2.6"/>
    <circle cx="121.0" cy="268.0" r="2.6"/>
    <circle cx="132.0" cy="268.0" r="2.6"/>
    <circle cx="143.0" cy="268.0" r="2.6"/>
    <circle cx="154.0" cy="268.0" r="2.6"/>
    <circle cx="165.0" cy="268.0" r="2.6"/>
    <circle cx="176.0" cy="268.0" r="2.6"/>
    <circle cx="187.0" cy="268.0" r="2.6"/>
    <circle cx="198.0" cy="268.0" r="2.6"/>
    <circle cx="209.0" cy="268.0" r="2.6"/>
    <circle cx="220.0" cy="268.0" r="2.6"/>
    <circle cx="231.0" cy="268.0" r="2.6"/>
    <circle cx="242.0" cy="268.0" r="2.6"/>
    <circle cx="253.0" cy="268.0" r="2.6"/>
    <circle cx="264.0" cy="268.0" r="2.6"/>
    <circle cx="275.0" cy="268.0" r="2.6"/>
    <circle cx="286.0" cy="268.0" r="2.6"/>
    <circle cx="297.0" cy="268.0" r="2.6"/>
    <circle cx="308.0" cy="268.0" r="2.6"/>
    <circle cx="319.0" cy="268.0" r="2.6"/>
    <circle cx="330.0" cy="268.0" r="2.6"/>
    <circle cx="352.0" cy="268.0" r="2.6"/>
    <circle cx="374.0" cy="268.0" r="2.6"/>
    <circle cx="385.0" cy="268.0" r="2.6"/>
    <circle cx="396.0" cy="268.0" r="2.6"/>
    <circle cx="407.0" cy="268.0" r="2.6"/>
    <circle cx="418.0" cy="268.0" r="2.6"/>
    <circle cx="429.0" cy="268.0" r="2.6"/>
    <circle cx="440.0" cy="268.0" r="2.6"/>
    <circle cx="451.0" cy="268.0" r="2.6"/>
    <circle cx="462.0" cy="268.0" r="2.6"/>
    <circle cx="484.0" cy="268.0" r="2.6"/>
    <circle cx="495.0" cy="268.0" r="2.6"/>
    <circle cx="27.5" cy="279.0" r="2.6"/>
    <circle cx="38.5" cy="279.0" r="2.6"/>
    <circle cx="49.5" cy="279.0" r="2.6"/>
    <circle cx="60.5" cy="279.0" r="2.6"/>
    <circle cx="71.5" cy="279.0" r="2.6"/>
    <circle cx="82.5" cy="279.0" r="2.6"/>
    <circle cx="93.5" cy="279.0" r="2.6"/>
    <circle cx="104.5" cy="279.0" r="2.6"/>
    <circle cx="115.5" cy="279.0" r="2.6"/>
    <circle cx="126.5" cy="279.0" r="2.6"/>
    <circle cx="137.5" cy="279.0" r="2.6"/>
    <circle cx="148.5" cy="279.0" r="2.6"/>
    <circle cx="159.5" cy="279.0" r="2.6"/>
    <circle cx="170.5" cy="279.0" r="2.6"/>
    <circle cx="181.5" cy="279.0" r="2.6"/>
    <circle cx="192.5" cy="279.0" r="2.6"/>
    <circle cx="203.5" cy="279.0" r="2.6"/>
    <circle cx="214.5" cy="279.0" r="2.6"/>
    <circle cx="225.5" cy="279.0" r="2.6"/>
    <circle cx="236.5" cy="279.0" r="2.6"/>
    <circle cx="247.5" cy="279.0" r="2.6"/>
    <circle cx="258.5" cy="279.0" r="2.6"/>
    <circle cx="269.5" cy="279.0" r="2.6"/>
    <circle cx="280.5" cy="279.0" r="2.6"/>
    <circle cx="291.5" cy="279.0" r="2.6"/>
    <circle cx="302.5" cy="279.0" r="2.6"/>
    <circle cx="313.5" cy="279.0" r="2.6"/>
    <circle cx="324.5" cy="279.0" r="2.6"/>
    <circle cx="346.5" cy="279.0" r="2.6"/>
    <circle cx="357.5" cy="279.0" r="2.6"/>
    <circle cx="368.5" cy="279.0" r="2.6"/>
    <circle cx="379.5" cy="279.0" r="2.6"/>
    <circle cx="390.5" cy="279.0" r="2.6"/>
    <circle cx="401.5" cy="279.0" r="2.6"/>
    <circle cx="412.5" cy="279.0" r="2.6"/>
    <circle cx="423.5" cy="279.0" r="2.6"/>
    <circle cx="434.5" cy="279.0" r="2.6"/>
    <circle cx="445.5" cy="279.0" r="2.6"/>
    <circle cx="456.5" cy="279.0" r="2.6"/>
    <circle cx="478.5" cy="279.0" r="2.6"/>
    <circle cx="489.5" cy="279.0" r="2.6"/>
    <circle cx="33.0" cy="290.0" r="2.6"/>
    <circle cx="44.0" cy="290.0" r="2.6"/>
    <circle cx="55.0" cy="290.0" r="2.6"/>
    <circle cx="66.0" cy="290.0" r="2.6"/>
    <circle cx="77.0" cy="290.0" r="2.6"/>
    <circle cx="88.0" cy="290.0" r="2.6"/>
    <circle cx="99.0" cy="290.0" r="2.6"/>
    <circle cx="110.0" cy="290.0" r="2.6"/>
    <circle cx="121.0" cy="290.0" r="2.6"/>
    <circle cx="132.0" cy="290.0" r="2.6"/>
    <circle cx="143.0" cy="290.0" r="2.6"/>
    <circle cx="154.0" cy="290.0" r="2.6"/>
    <circle cx="165.0" cy="290.0" r="2.6"/>
    <circle cx="176.0" cy="290.0" r="2.6"/>
    <circle cx="187.0" cy="290.0" r="2.6"/>
    <circle cx="198.0" cy="290.0" r="2.6"/>
    <circle cx="209.0" cy="290.0" r="2.6"/>
    <circle cx="220.0" cy="290.0" r="2.6"/>
    <circle cx="231.0" cy="290.0" r="2.6"/>
    <circle cx="242.0" cy="290.0" r="2.6"/>
    <circle cx="253.0" cy="290.0" r="2.6"/>
    <circle cx="264.0" cy="290.0" r="2.6"/>
    <circle cx="275.0" cy="290.0" r="2.6"/>
    <circle cx="286.0" cy="290.0" r="2.6"/>
    <circle cx="297.0" cy="290.0" r="2.6"/>
    <circle cx="308.0" cy="290.0" r="2.6"/>
    <circle cx="330.0" cy="290.0" r="2.6"/>
    <circle cx="341.0" cy="290.0" r="2.6"/>
    <circle cx="352.0" cy="290.0" r="2.6"/>
    <circle cx="363.0" cy="290.0" r="2.6"/>
    <circle cx="374.0" cy="290.0" r="2.6"/>
    <circle cx="385.0" cy="290.0" r="2.6"/>
    <circle cx="396.0" cy="290.0" r="2.6"/>
    <circle cx="407.0" cy="290.0" r="2.6"/>
    <circle cx="418.0" cy="290.0" r="2.6"/>
    <circle cx="429.0" cy="290.0" r="2.6"/>
    <circle cx="440.0" cy="290.0" r="2.6"/>
    <circle cx="451.0" cy="290.0" r="2.6"/>
    <circle cx="462.0" cy="290.0" r="2.6"/>
    <circle cx="473.0" cy="290.0" r="2.6"/>
    <circle cx="484.0" cy="290.0" r="2.6"/>
    <circle cx="495.0" cy="290.0" r="2.6"/>
    <circle cx="38.5" cy="301.0" r="2.6"/>
    <circle cx="49.5" cy="301.0" r="2.6"/>
    <circle cx="60.5" cy="301.0" r="2.6"/>
    <circle cx="71.5" cy="301.0" r="2.6"/>
    <circle cx="82.5" cy="301.0" r="2.6"/>
    <circle cx="93.5" cy="301.0" r="2.6"/>
    <circle cx="104.5" cy="301.0" r="2.6"/>
    <circle cx="115.5" cy="301.0" r="2.6"/>
    <circle cx="126.5" cy="301.0" r="2.6"/>
    <circle cx="137.5" cy="301.0" r="2.6"/>
    <circle cx="148.5" cy="301.0" r="2.6"/>
    <circle cx="159.5" cy="301.0" r="2.6"/>
    <circle cx="170.5" cy="301.0" r="2.6"/>
    <circle cx="181.5" cy="301.0" r="2.6"/>
    <circle cx="192.5" cy="301.0" r="2.6"/>
    <circle cx="203.5" cy="301.0" r="2.6"/>
    <circle cx="236.5" cy="301.0" r="2.6"/>
    <circle cx="247.5" cy="301.0" r="2.6"/>
    <circle cx="258.5" cy="301.0" r="2.6"/>
    <circle cx="269.5" cy="301.0" r="2.6"/>
    <circle cx="280.5" cy="301.0" r="2.6"/>
    <circle cx="291.5" cy="301.0" r="2.6"/>
    <circle cx="302.5" cy="301.0" r="2.6"/>
    <circle cx="313.5" cy="301.0" r="2.6"/>
    <circle cx="324.5" cy="301.0" r="2.6"/>
    <circle cx="335.5" cy="301.0" r="2.6"/>
    <circle cx="346.5" cy="301.0" r="2.6"/>
    <circle cx="357.5" cy="301.0" r="2.6"/>
    <circle cx="368.5" cy="301.0" r="2.6"/>
    <circle cx="379.5" cy="301.0" r="2.6"/>
    <circle cx="390.5" cy="301.0" r="2.6"/>
    <circle cx="401.5" cy="301.0" r="2.6"/>
    <circle cx="412.5" cy="301.0" r="2.6"/>
    <circle cx="423.5" cy="301.0" r="2.6"/>
    <circle cx="434.5" cy="301.0" r="2.6"/>
    <circle cx="445.5" cy="301.0" r="2.6"/>
    <circle cx="456.5" cy="301.0" r="2.6"/>
    <circle cx="467.5" cy="301.0" r="2.6"/>
    <circle cx="478.5" cy="301.0" r="2.6"/>
    <circle cx="489.5" cy="301.0" r="2.6"/>
    <circle cx="55.0" cy="312.0" r="2.6"/>
    <circle cx="66.0" cy="312.0" r="2.6"/>
    <circle cx="77.0" cy="312.0" r="2.6"/>
    <circle cx="88.0" cy="312.0" r="2.6"/>
    <circle cx="99.0" cy="312.0" r="2.6"/>
    <circle cx="110.0" cy="312.0" r="2.6"/>
    <circle cx="121.0" cy="312.0" r="2.6"/>
    <circle cx="132.0" cy="312.0" r="2.6"/>
    <circle cx="143.0" cy="312.0" r="2.6"/>
    <circle cx="154.0" cy="312.0" r="2.6"/>
    <circle cx="165.0" cy="312.0" r="2.6"/>
    <circle cx="176.0" cy="312.0" r="2.6"/>
    <circle cx="187.0" cy="312.0" r="2.6"/>
    <circle cx="198.0" cy="312.0" r="2.6"/>
    <circle cx="253.0" cy="312.0" r="2.6"/>
    <circle cx="264.0" cy="312.0" r="2.6"/>
    <circle cx="275.0" cy="312.0" r="2.6"/>
    <circle cx="297.0" cy="312.0" r="2.6"/>
    <circle cx="308.0" cy="312.0" r="2.6"/>
    <circle cx="319.0" cy="312.0" r="2.6"/>
    <circle cx="330.0" cy="312.0" r="2.6"/>
    <circle cx="341.0" cy="312.0" r="2.6"/>
    <circle cx="363.0" cy="312.0" r="2.6"/>
    <circle cx="374.0" cy="312.0" r="2.6"/>
    <circle cx="385.0" cy="312.0" r="2.6"/>
    <circle cx="396.0" cy="312.0" r="2.6"/>
    <circle cx="407.0" cy="312.0" r="2.6"/>
    <circle cx="418.0" cy="312.0" r="2.6"/>
    <circle cx="429.0" cy="312.0" r="2.6"/>
    <circle cx="440.0" cy="312.0" r="2.6"/>
    <circle cx="451.0" cy="312.0" r="2.6"/>
    <circle cx="462.0" cy="312.0" r="2.6"/>
    <circle cx="473.0" cy="312.0" r="2.6"/>
    <circle cx="484.0" cy="312.0" r="2.6"/>
    <circle cx="60.5" cy="323.0" r="2.6"/>
    <circle cx="71.5" cy="323.0" r="2.6"/>
    <circle cx="82.5" cy="323.0" r="2.6"/>
    <circle cx="93.5" cy="323.0" r="2.6"/>
    <circle cx="104.5" cy="323.0" r="2.6"/>
    <circle cx="115.5" cy="323.0" r="2.6"/>
    <circle cx="126.5" cy="323.0" r="2.6"/>
    <circle cx="137.5" cy="323.0" r="2.6"/>
    <circle cx="148.5" cy="323.0" r="2.6"/>
    <circle cx="159.5" cy="323.0" r="2.6"/>
    <circle cx="170.5" cy="323.0" r="2.6"/>
    <circle cx="181.5" cy="323.0" r="2.6"/>
    <circle cx="192.5" cy="323.0" r="2.6"/>
    <circle cx="247.5" cy="323.0" r="2.6"/>
    <circle cx="258.5" cy="323.0" r="2.6"/>
    <circle cx="269.5" cy="323.0" r="2.6"/>
    <circle cx="280.5" cy="323.0" r="2.6"/>
    <circle cx="291.5" cy="323.0" r="2.6"/>
    <circle cx="302.5" cy="323.0" r="2.6"/>
    <circle cx="313.5" cy="323.0" r="2.6"/>
    <circle cx="324.5" cy="323.0" r="2.6"/>
    <circle cx="335.5" cy="323.0" r="2.6"/>
    <circle cx="346.5" cy="323.0" r="2.6"/>
    <circle cx="357.5" cy="323.0" r="2.6"/>
    <circle cx="368.5" cy="323.0" r="2.6"/>
    <circle cx="379.5" cy="323.0" r="2.6"/>
    <circle cx="390.5" cy="323.0" r="2.6"/>
    <circle cx="401.5" cy="323.0" r="2.6"/>
    <circle cx="412.5" cy="323.0" r="2.6"/>
    <circle cx="423.5" cy="323.0" r="2.6"/>
    <circle cx="434.5" cy="323.0" r="2.6"/>
    <circle cx="445.5" cy="323.0" r="2.6"/>
    <circle cx="456.5" cy="323.0" r="2.6"/>
    <circle cx="467.5" cy="323.0" r="2.6"/>
    <circle cx="478.5" cy="323.0" r="2.6"/>
    <circle cx="77.0" cy="334.0" r="2.6"/>
    <circle cx="88.0" cy="334.0" r="2.6"/>
    <circle cx="99.0" cy="334.0" r="2.6"/>
    <circle cx="110.0" cy="334.0" r="2.6"/>
    <circle cx="121.0" cy="334.0" r="2.6"/>
    <circle cx="132.0" cy="334.0" r="2.6"/>
    <circle cx="143.0" cy="334.0" r="2.6"/>
    <circle cx="154.0" cy="334.0" r="2.6"/>
    <circle cx="165.0" cy="334.0" r="2.6"/>
    <circle cx="176.0" cy="334.0" r="2.6"/>
    <circle cx="187.0" cy="334.0" r="2.6"/>
    <circle cx="198.0" cy="334.0" r="2.6"/>
    <circle cx="253.0" cy="334.0" r="2.6"/>
    <circle cx="264.0" cy="334.0" r="2.6"/>
    <circle cx="275.0" cy="334.0" r="2.6"/>
    <circle cx="286.0" cy="334.0" r="2.6"/>
    <circle cx="297.0" cy="334.0" r="2.6"/>
    <circle cx="308.0" cy="334.0" r="2.6"/>
    <circle cx="319.0" cy="334.0" r="2.6"/>
    <circle cx="330.0" cy="334.0" r="2.6"/>
    <circle cx="341.0" cy="334.0" r="2.6"/>
    <circle cx="352.0" cy="334.0" r="2.6"/>
    <circle cx="363.0" cy="334.0" r="2.6"/>
    <circle cx="374.0" cy="334.0" r="2.6"/>
    <circle cx="385.0" cy="334.0" r="2.6"/>
    <circle cx="396.0" cy="334.0" r="2.6"/>
    <circle cx="407.0" cy="334.0" r="2.6"/>
    <circle cx="418.0" cy="334.0" r="2.6"/>
    <circle cx="429.0" cy="334.0" r="2.6"/>
    <circle cx="440.0" cy="334.0" r="2.6"/>
    <circle cx="451.0" cy="334.0" r="2.6"/>
    <circle cx="462.0" cy="334.0" r="2.6"/>
    <circle cx="473.0" cy="334.0" r="2.6"/>
    <circle cx="71.5" cy="345.0" r="2.6"/>
    <circle cx="82.5" cy="345.0" r="2.6"/>
    <circle cx="93.5" cy="345.0" r="2.6"/>
    <circle cx="104.5" cy="345.0" r="2.6"/>
    <circle cx="115.5" cy="345.0" r="2.6"/>
    <circle cx="126.5" cy="345.0" r="2.6"/>
    <circle cx="137.5" cy="345.0" r="2.6"/>
    <circle cx="148.5" cy="345.0" r="2.6"/>
    <circle cx="159.5" cy="345.0" r="2.6"/>
    <circle cx="170.5" cy="345.0" r="2.6"/>
    <circle cx="181.5" cy="345.0" r="2.6"/>
    <circle cx="192.5" cy="345.0" r="2.6"/>
    <circle cx="258.5" cy="345.0" r="2.6"/>
    <circle cx="269.5" cy="345.0" r="2.6"/>
    <circle cx="280.5" cy="345.0" r="2.6"/>
    <circle cx="291.5" cy="345.0" r="2.6"/>
    <circle cx="302.5" cy="345.0" r="2.6"/>
    <circle cx="313.5" cy="345.0" r="2.6"/>
    <circle cx="324.5" cy="345.0" r="2.6"/>
    <circle cx="335.5" cy="345.0" r="2.6"/>
    <circle cx="346.5" cy="345.0" r="2.6"/>
    <circle cx="357.5" cy="345.0" r="2.6"/>
    <circle cx="368.5" cy="345.0" r="2.6"/>
    <circle cx="379.5" cy="345.0" r="2.6"/>
    <circle cx="390.5" cy="345.0" r="2.6"/>
    <circle cx="401.5" cy="345.0" r="2.6"/>
    <circle cx="412.5" cy="345.0" r="2.6"/>
    <circle cx="423.5" cy="345.0" r="2.6"/>
    <circle cx="110.0" cy="356.0" r="2.6"/>
    <circle cx="121.0" cy="356.0" r="2.6"/>
    <circle cx="132.0" cy="356.0" r="2.6"/>
    <circle cx="143.0" cy="356.0" r="2.6"/>
    <circle cx="154.0" cy="356.0" r="2.6"/>
    <circle cx="165.0" cy="356.0" r="2.6"/>
    <circle cx="176.0" cy="356.0" r="2.6"/>
    <circle cx="264.0" cy="356.0" r="2.6"/>
    <circle cx="275.0" cy="356.0" r="2.6"/>
    <circle cx="286.0" cy="356.0" r="2.6"/>
    <circle cx="297.0" cy="356.0" r="2.6"/>
    <circle cx="308.0" cy="356.0" r="2.6"/>
    <circle cx="319.0" cy="356.0" r="2.6"/>
    <circle cx="330.0" cy="356.0" r="2.6"/>
    <circle cx="341.0" cy="356.0" r="2.6"/>
    <circle cx="352.0" cy="356.0" r="2.6"/>
    <circle cx="363.0" cy="356.0" r="2.6"/>
    <circle cx="374.0" cy="356.0" r="2.6"/>
    <circle cx="385.0" cy="356.0" r="2.6"/>
    <circle cx="396.0" cy="356.0" r="2.6"/>
    <circle cx="407.0" cy="356.0" r="2.6"/>
    <circle cx="418.0" cy="356.0" r="2.6"/>
    <circle cx="115.5" cy="367.0" r="2.6"/>
    <circle cx="126.5" cy="367.0" r="2.6"/>
    <circle cx="137.5" cy="367.0" r="2.6"/>
    <circle cx="148.5" cy="367.0" r="2.6"/>
    <circle cx="159.5" cy="367.0" r="2.6"/>
    <circle cx="170.5" cy="367.0" r="2.6"/>
    <circle cx="181.5" cy="367.0" r="2.6"/>
    <circle cx="291.5" cy="367.0" r="2.6"/>
    <circle cx="302.5" cy="367.0" r="2.6"/>
    <circle cx="313.5" cy="367.0" r="2.6"/>
    <circle cx="324.5" cy="367.0" r="2.6"/>
    <circle cx="335.5" cy="367.0" r="2.6"/>
    <circle cx="346.5" cy="367.0" r="2.6"/>
    <circle cx="357.5" cy="367.0" r="2.6"/>
    <circle cx="368.5" cy="367.0" r="2.6"/>
    <circle cx="379.5" cy="367.0" r="2.6"/>
    <circle cx="390.5" cy="367.0" r="2.6"/>
    <circle cx="401.5" cy="367.0" r="2.6"/>
    <circle cx="412.5" cy="367.0" r="2.6"/>
    <circle cx="423.5" cy="367.0" r="2.6"/>
    <circle cx="165.0" cy="378.0" r="2.6"/>
    <circle cx="176.0" cy="378.0" r="2.6"/>
    <circle cx="286.0" cy="378.0" r="2.6"/>
    <circle cx="297.0" cy="378.0" r="2.6"/>
    <circle cx="308.0" cy="378.0" r="2.6"/>
    <circle cx="319.0" cy="378.0" r="2.6"/>
    <circle cx="330.0" cy="378.0" r="2.6"/>
    <circle cx="341.0" cy="378.0" r="2.6"/>
    <circle cx="352.0" cy="378.0" r="2.6"/>
    <circle cx="363.0" cy="378.0" r="2.6"/>
    <circle cx="374.0" cy="378.0" r="2.6"/>
    <circle cx="385.0" cy="378.0" r="2.6"/>
    <circle cx="396.0" cy="378.0" r="2.6"/>
    <circle cx="407.0" cy="378.0" r="2.6"/>
    <circle cx="418.0" cy="378.0" r="2.6"/>
    <circle cx="291.5" cy="389.0" r="2.6"/>
    <circle cx="302.5" cy="389.0" r="2.6"/>
    <circle cx="313.5" cy="389.0" r="2.6"/>
    <circle cx="324.5" cy="389.0" r="2.6"/>
    <circle cx="335.5" cy="389.0" r="2.6"/>
    <circle cx="368.5" cy="389.0" r="2.6"/>
    <circle cx="379.5" cy="389.0" r="2.6"/>
    <circle cx="390.5" cy="389.0" r="2.6"/>
    <circle cx="401.5" cy="389.0" r="2.6"/>
    <circle cx="412.5" cy="389.0" r="2.6"/>
    <circle cx="286.0" cy="400.0" r="2.6"/>
    <circle cx="297.0" cy="400.0" r="2.6"/>
    <circle cx="385.0" cy="400.0" r="2.6"/>
    <circle cx="396.0" cy="400.0" r="2.6"/>
  </g>
  <g fill="#3A4A66">
    <circle cx="269.5" cy="257.0" r="4.4"/>
    <circle cx="286.0" cy="312.0" r="4.4"/>
    <circle cx="319.0" cy="290.0" r="4.4"/>
    <circle cx="335.5" cy="279.0" r="4.4"/>
    <circle cx="341.0" cy="268.0" r="4.4"/>
    <circle cx="352.0" cy="312.0" r="4.4"/>
    <circle cx="363.0" cy="268.0" r="4.4"/>
    <circle cx="390.5" cy="257.0" r="4.4"/>
    <circle cx="412.5" cy="235.0" r="4.4"/>
  </g>
</svg>