<svg xmlns="http://www.w3.org/2000/svg" viewBox="0 0 520 440" role="img" aria-hidden="true" focusable="false">
  <g fill="#E3E6EB">
    <circle cx="306.8" cy="45.9" r="2.6"/>
    <circle cx="317.8" cy="45.9" r="2.6"/>
    <circle cx="328.8" cy="45.9" r="2.6"/>
    <circle cx="339.8" cy="45.9" r="2.6"/>
    <circle cx="350.8" cy="45.9" r="2.6"/>
    <circle cx="372.8" cy="45.9" r="2.6"/>
    <circle cx="235.3" cy="56.9" r="2.6"/>
    <circle cx="279.3" cy="56.9" r="2.6"/>
    <circle cx="290.3" cy="56.9" r="2.6"/>
    <circle cx="301.3" cy="56.9" r="2.6"/>
    <circle cx="312.3" cy="56.9" r="2.6"/>
    <circle cx="323.3" cy="56.9" r="2.6"/>
    <circle cx="334.3" cy="56.9" r="2.6"/>
    <circle cx="345.3" cy="56.9" r="2.6"/>
    <circle cx="356.3" cy="56.9" r="2.6"/>
    <circle cx="367.3" cy="56.9" r="2.6"/>
    <circle cx="378.3" cy="56.9" r="2.6"/>
    <circle cx="389.3" cy="56.9" r="2.6"/>
    <circle cx="229.8" cy="67.9" r="2.6"/>
    <circle cx="240.8" cy="67.9" r="2.6"/>
    <circle cx="251.8" cy="67.9" r="2.6"/>
    <circle cx="262.8" cy="67.9" r="2.6"/>
    <circle cx="273.8" cy="67.9" r="2.6"/>
    <circle cx="284.8" cy="67.9" r="2.6"/>
    <circle cx="295.8" cy="67.9" r="2.6"/>
    <circle cx="306.8" cy="67.9" r="2.6"/>
    <circle cx="317.8" cy="67.9" r="2.6"/>
    <circle cx="328.8" cy="67.9" r="2.6"/>
    <circle cx="339.8" cy="67.9" r="2.6"/>
    <circle cx="350.8" cy="67.9" r="2.6"/>
    <circle cx="361.8" cy="67.9" r="2.6"/>
    <circle cx="372.8" cy="67.9" r="2.6"/>
    <circle cx="383.8" cy="67.9" r="2.6"/>
    <circle cx="394.8" cy="67.9" r="2.6"/>
    <circle cx="224.3" cy="78.9" r="2.6"/>
    <circle cx="235.3" cy="78.9" r="2.6"/>
    <circle cx="246.3" cy="78.9" r="2.6"/>
    <circle cx="257.3" cy="78.9" r="2.6"/>
    <circle cx="268.3" cy="78.9" r="2.6"/>
    <circle cx="279.3" cy="78.9" r="2.6"/>
    <circle cx="290.3" cy="78.9" r="2.6"/>
    <circle cx="301.3" cy="78.9" r="2.6"/>
    <circle cx="312.3" cy="78.9" r="2.6"/>
    <circle cx="323.3" cy="78.9" r="2.6"/>
    <circle cx="334.3" cy="78.9" r="2.6"/>
    <circle cx="345.3" cy="78.9" r="2.6"/>
    <circle cx="356.3" cy="78.9" r="2.6"/>
    <circle cx="367.3" cy="78.9" r="2.6"/>
    <circle cx="378.3" cy="78.9" r="2.6"/>
    <circle cx="389.3" cy="78.9" r="2.6"/>
    <circle cx="229.8" cy="89.9" r="2.6"/>
    <circle cx="240.8" cy="89.9" r="2.6"/>
    <circle cx="251.8" cy="89.9" r="2.6"/>
    <circle cx="262.8" cy="89.9" r="2.6"/>
    <circle cx="273.8" cy="89.9" r="2.6"/>
    <circle cx="284.8" cy="89.9" r="2.6"/>
    <circle cx="295.8" cy="89.9" r="2.6"/>
    <circle cx="306.8" cy="89.9" r="2.6"/>
    <circle cx="317.8" cy="89.9" r="2.6"/>
    <circle cx="328.8" cy="89.9" r="2.6"/>
    <circle cx="339.8" cy="89.9" r="2.6"/>
    <circle cx="350.8" cy="89.9" r="2.6"/>
    <circle cx="361.8" cy="89.9" r="2.6"/>
    <circle cx="372.8" cy="89.9" r="2.6"/>
    <circle cx="383.8" cy="89.9" r="2.6"/>
    <circle cx="169.3" cy="100.9" r="2.6"/>
    <circle cx="180.3" cy="100.9" r="2.6"/>
    <circle cx="191.3" cy="100.9" r="2.6"/>
    <circle cx="202.3" cy="100.9" r="2.6"/>
    <circle cx="213.3" cy="100.9" r="2.6"/>
    <circle cx="224.3" cy="100.9" r="2.6"/>
    <circle cx="235.3" cy="100.9" r="2.6"/>
    <circle cx="246.3" cy="100.9" r="2.6"/>
    <circle cx="257.3" cy="100.9" r="2.6"/>
    <circle cx="268.3" cy="100.9" r="2.6"/>
    <circle cx="279.3" cy="100.9" r="2.6"/>
    <circle cx="290.3" cy="100.9" r="2.6"/>
    <circle cx="301.3" cy="100.9" r="2.6"/>
    <circle cx="312.3" cy="100.9" r="2.6"/>
    <circle cx="323.3" cy="100.9" r="2.6"/>
    <circle cx="334.3" cy="100.9" r="2.6"/>
    <circle cx="345.3" cy="100.9" r="2.6"/>
    <circle cx="356.3" cy="100.9" r="2.6"/>
    <circle cx="367.3" cy="100.9" r="2.6"/>
    <circle cx="378.3" cy="100.9" r="2.6"/>
    <circle cx="389.3" cy="100.9" r="2.6"/>
    <circle cx="400.3" cy="100.9" r="2.6"/>
    <circle cx="163.8" cy="111.9" r="2.6"/>
    <circle cx="174.8" cy="111.9" r="2.6"/>
    <circle cx="185.8" cy="111.9" r="2.6"/>
    <circle cx="196.8" cy="111.9" r="2.6"/>
    <circle cx="207.8" cy="111.9" r="2.6"/>
    <circle cx="218.8" cy="111.9" r="2.6"/>
    <circle cx="229.8" cy="111.9" r="2.6"/>
    <circle cx="240.8" cy="111.9" r="2.6"/>
    <circle cx="251.8" cy="111.9" r="2.6"/>
    <circle cx="262.8" cy="111.9" r="2.6"/>
    <circle cx="273.8" cy="111.9" r="2.6"/>
    <circle cx="284.8" cy="111.9" r="2.6"/>
    <circle cx="295.8" cy="111.9" r="2.6"/>
    <circle cx="306.8" cy="111.9" r="2.6"/>
    <circle cx="317.8" cy="111.9" r="2.6"/>
    <circle cx="328.8" cy="111.9" r="2.6"/>
    <circle cx="339.8" cy="111.9" r="2.6"/>
    <circle cx="350.8" cy="111.9" r="2.6"/>
    <circle cx="361.8" cy="111.9" r="2.6"/>
    <circle cx="372.8" cy="111.9" r="2.6"/>
    <circle cx="383.8" cy="111.9" r="2.6"/>
    <circle cx="394.8" cy="111.9" r="2.6"/>
    <circle cx="158.3" cy="122.9" r="2.6"/>
    <circle cx="169.3" cy="122.9" r="2.6"/>
    <circle cx="180.3" cy="122.9" r="2.6"/>
    <circle cx="191.3" cy="122.9" r="2.6"/>
    <circle cx="202.3" cy="122.9" r="2.6"/>
    <circle cx="213.3" cy="122.9" r="2.6"/>
    <circle cx="224.3" cy="122.9" r="2.6"/>
    <circle cx="235.3" cy="122.9" r="2.6"/>
    <circle cx="246.3" cy="122.9" r="2.6"/>
    <circle cx="257.3" cy="122.9" r="2.6"/>
    <circle cx="268.3" cy="122.9" r="2.6"/>
    <circle cx="279.3" cy="122.9" r="2.6"/>
    <circle cx="290.3" cy="122.9" r="2.6"/>
    <circle cx="301.3" cy="122.9" r="2.6"/>
    <circle cx="312.3" cy="122.9" r="2.6"/>
    <circle cx="323.3" cy="122.9" r="2.6"/>
    <circle cx="334.3" cy="122.9" r="2.6"/>
    <circle cx="345.3" cy="122.9" r="2.6"/>
    <circle cx="356.3" cy="122.9" r="2.6"/>
    <circle cx="367.3" cy="122.9" r="2.6"/>
    <circle cx="378.3" cy="122.9" r="2.6"/>
    <circle cx="389.3" cy="122.9" r="2.6"/>
    <circle cx="400.3" cy="122.9" r="2.6"/>
    <circle cx="411.3" cy="122.9" r="2.6"/>
    <circle cx="152.8" cy="133.9" r="2.6"/>
    <circle cx="163.8" cy="133.9" r="2.6"/>
    <circle cx="174.8" cy="133.9" r="2.6"/>
    <circle cx="185.8" cy="133.9" r="2.6"/>
    <circle cx="196.8" cy="133.9" r="2.6"/>
    <circle cx="207.8" cy="133.9" r="2.6"/>
    <circle cx="218.8" cy="133.9" r="2.6"/>
    <circle cx="229.8" cy="133.9" r="2.6"/>
    <circle cx="240.8" cy="133.9" r="2.6"/>
    <circle cx="251.8" cy="133.9" r="2.6"/>
    <circle cx="262.8" cy="133.9" r="2.6"/>
    <circle cx="273.8" cy="133.9" r="2.6"/>
    <circle cx="284.8" cy="133.9" r="2.6"/>
    <circle cx="295.8" cy="133.9" r="2.6"/>
    <circle cx="306.8" cy="133.9" r="2.6"/>
    <circle cx="317.8" cy="133.9" r="2.6"/>
    <circle cx="328.8" cy="133.9" r="2.6"/>
    <circle cx="339.8" cy="133.9" r="2.6"/>
    <circle cx="350.8" cy="133.9" r="2.6"/>
    <circle cx="361.8" cy="133.9" r="2.6"/>
    <circle cx="372.8" cy="133.9" r="2.6"/>
    <circle cx="383.8" cy="133.9" r="2.6"/>
    <circle cx="394.8" cy="133.9" r="2.6"/>
    <circle cx="405.8" cy="133.9" r="2.6"/>
    <circle cx="416.8" cy="133.9" r="2.6"/>
    <circle cx="147.3" cy="144.9" r="2.6"/>
    <circle cx="158.3" cy="144.9" r="2.6"/>
    <circle cx="169.3" cy="144.9" r="2.6"/>
    <circle cx="180.3" cy="144.9" r="2.6"/>
    <circle cx="191.3" cy="144.9" r="2.6"/>
    <circle cx="202.3" cy="144.9" r="2.6"/>
    <circle cx="213.3" cy="144.9" r="2.6"/>
    <circle cx="224.3" cy="144.9" r="2.6"/>
    <circle cx="235.3" cy="144.9" r="2.6"/>
    <circle cx="246.3" cy="144.9" r="2.6"/>
    <circle cx="257.3" cy="144.9" r="2.6"/>
    <circle cx="268.3" cy="144.9" r="2.6"/>
    <circle cx="279.3" cy="144.9" r="2.6"/>
    <circle cx="290.3" cy="144.9" r="2.6"/>
    <circle cx="301.3" cy="144.9" r="2.6"/>
    <circle cx="312.3" cy="144.9" r="2.6"/>
    <circle cx="323.3" cy="144.9" r="2.6"/>
    <circle cx="334.3" cy="144.9" r="2.6"/>
    <circle cx="345.3" cy="144.9" r="2.6"/>
    <circle cx="356.3" cy="144.9" r="2.6"/>
    <circle cx="367.3" cy="144.9" r="2.6"/>
    <circle cx="378.3" cy="144.9" r="2.6"/>
    <circle cx="389.3" cy="144.9" r="2.6"/>
    <circle cx="400.3" cy="144.9" r="2.6"/>
    <circle cx="411.3" cy="144.9" r="2.6"/>
    <circle cx="422.3" cy="144.9" r="2.6"/>
    <circle cx="152.8" cy="155.9" r="2.6"/>
    <circle cx="163.8" cy="155.9" r="2.6"/>
    <circle cx="174.8" cy="155.9" r="2.6"/>
    <circle cx="185.8" cy="155.9" r="2.6"/>
    <circle cx="196.8" cy="155.9" r="2.6"/>
    <circle cx="207.8" cy="155.9" r="2.6"/>
    <circle cx="218.8" cy="155.9" r="2.6"/>
    <circle cx="229.8" cy="155.9" r="2.6"/>
    <circle cx="240.8" cy="155.9" r="2.6"/>
    <circle cx="251.8" cy="155.9" r="2.6"/>
    <circle cx="262.8" cy="155.9" r="2.6"/>
    <circle cx="273.8" cy="155.9" r="2.6"/>
    <circle cx="284.8" cy="155.9" r="2.6"/>
    <circle cx="295.8" cy="155.9" r="2.6"/>
    <circle cx="306.8" cy="155.9" r="2.6"/>
    <circle cx="317.8" cy="155.9" r="2.6"/>
    <circle cx="328.8" cy="155.9" r="2.6"/>
    <circle cx="339.8" cy="155.9" r="2.6"/>
    <circle cx="350.8" cy="155.9" r="2.6"/>
    <circle cx="361.8" cy="155.9" r="2.6"/>
    <circle cx="372.8" cy="155.9" r="2.6"/>
    <circle cx="383.8" cy="155.9" r="2.6"/>
    <circle cx="394.8" cy="155.9" r="2.6"/>
    <circle cx="405.8" cy="155.9" r="2.6"/>
    <circle cx="416.8" cy="155.9" r="2.6"/>
    <circle cx="427.8" cy="155.9" r="2.6"/>
    <circle cx="136.3" cy="166.9" r="2.6"/>
    <circle cx="147.3" cy="166.9" r="2.6"/>
    <circle cx="158.3" cy="166.9" r="2.6"/>
    <circle cx="169.3" cy="166.9" r="2.6"/>
    <circle cx="180.3" cy="166.9" r="2.6"/>
    <circle cx="191.3" cy="166.9" r="2.6"/>
    <circle cx="202.3" cy="166.9" r="2.6"/>
    <circle cx="213.3" cy="166.9" r="2.6"/>
    <circle cx="224.3" cy="166.9" r="2.6"/>
    <circle cx="235.3" cy="166.9" r="2.6"/>
    <circle cx="246.3" cy="166.9" r="2.6"/>
    <circle cx="257.3" cy="166.9" r="2.6"/>
    <circle cx="268.3" cy="166.9" r="2.6"/>
    <circle cx="279.3" cy="166.9" r="2.6"/>
    <circle cx="290.3" cy="166.9" r="2.6"/>
    <circle cx="301.3" cy="166.9" r="2.6"/>
    <circle cx="312.3" cy="166.9" r="2.6"/>
    <circle cx="323.3" cy="166.9" r="2.6"/>
    <circle cx="334.3" cy="166.9" r="2.6"/>
    <circle cx="345.3" cy="166.9" r="2.6"/>
    <circle cx="356.3" cy="166.9" r="2.6"/>
    <circle cx="367.3" cy="166.9" r="2.6"/>
    <circle cx="378.3" cy="166.9" r="2.6"/>
    <circle cx="389.3" cy="166.9" r="2.6"/>
    <circle cx="400.3" cy="166.9" r="2.6"/>
    <circle cx="411.3" cy="166.9" r="2.6"/>
    <circle cx="422.3" cy="166.9" r="2.6"/>
    <circle cx="433.3" cy="166.9" r="2.6"/>
    <circle cx="444.3" cy="166.9" r="2.6"/>
    <circle cx="130.8" cy="177.9" r="2.6"/>
    <circle cx="141.8" cy="177.9" r="2.6"/>
    <circle cx="152.8" cy="177.9" r="2.6"/>
    <circle cx="163.8" cy="177.9" r="2.6"/>
    <circle cx="174.8" cy="177.9" r="2.6"/>
    <circle cx="185.8" cy="177.9" r="2.6"/>
    <circle cx="196.8" cy="177.9" r="2.6"/>
    <circle cx="207.8" cy="177.9" r="2.6"/>
    <circle cx="218.8" cy="177.9" r="2.6"/>
    <circle cx="229.8" cy="177.9" r="2.6"/>
    <circle cx="240.8" cy="177.9" r="2.6"/>
    <circle cx="251.8" cy="177.9" r="2.6"/>
    <circle cx="262.8" cy="177.9" r="2.6"/>
    <circle cx="273.8" cy="177.9" r="2.6"/>
    <circle cx="284.8" cy="177.9" r="2.6"/>
    <circle cx="295.8" cy="177.9" r="2.6"/>
    <circle cx="306.8" cy="177.9" r="2.6"/>
    <circle cx="317.8" cy="177.9" r="2.6"/>
    <circle cx="328.8" cy="177.9" r="2.6"/>
    <circle cx="339.8" cy="177.9" r="2.6"/>
    <circle cx="350.8" cy="177.9" r="2.6"/>
    <circle cx="361.8" cy="177.9" r="2.6"/>
    <circle cx="372.8" cy="177.9" r="2.6"/>
    <circle cx="383.8" cy="177.9" r="2.6"/>
    <circle cx="394.8" cy="177.9" r="2.6"/>
    <circle cx="405.8" cy="177.9" r="2.6"/>
    <circle cx="416.8" cy="177.9" r="2.6"/>
    <circle cx="427.8" cy="177.9" r="2.6"/>
    <circle cx="438.8" cy="177.9" r="2.6"/>
    <circle cx="449.8" cy="177.9" r="2.6"/>
    <circle cx="114.3" cy="188.9" r="2.6"/>
    <circle cx="125.3" cy="188.9" r="2.6"/>
    <circle cx="136.3" cy="188.9" r="2.6"/>
    <circle cx="147.3" cy="188.9" r="2.6"/>
    <circle cx="158.3" cy="188.9" r="2.6"/>
    <circle cx="169.3" cy="188.9" r="2.6"/>
    <circle cx="180.3" cy="188.9" r="2.6"/>
    <circle cx="191.3" cy="188.9" r="2.6"/>
    <circle cx="202.3" cy="188.9" r="2.6"/>
    <circle cx="213.3" cy="188.9" r="2.6"/>
    <circle cx="224.3" cy="188.9" r="2.6"/>
    <circle cx="235.3" cy="188.9" r="2.6"/>
    <circle cx="246.3" cy="188.9" r="2.6"/>
    <circle cx="257.3" cy="188.9" r="2.6"/>
    <circle cx="268.3" cy="188.9" r="2.6"/>
    <circle cx="279.3" cy="188.9" r="2.6"/>
    <circle cx="290.3" cy="188.9" r="2.6"/>
    <circle cx="301.3" cy="188.9" r="2.6"/>
    <circle cx="312.3" cy="188.9" r="2.6"/>
    <circle cx="323.3" cy="188.9" r="2.6"/>
    <circle cx="334.3" cy="188.9" r="2.6"/>
    <circle cx="345.3" cy="188.9" r="2.6"/>
    <circle cx="356.3" cy="188.9" r="2.6"/>
    <circle cx="367.3" cy="188.9" r="2.6"/>
    <circle cx="378.3" cy="188.9" r="2.6"/>
    <circle cx="389.3" cy="188.9" r="2.6"/>
    <circle cx="400.3" cy="188.9" r="2.6"/>
    <circle cx="411.3" cy="188.9" r="2.6"/>
    <circle cx="422.3" cy="188.9" r="2.6"/>
    <circle cx="433.3" cy="188.9" r="2.6"/>
    <circle cx="444.3" cy="188.9" r="2.6"/>
    <circle cx="75.8" cy="199.9" r="2.6"/>
    <circle cx="86.8" cy="199.9" r="2.6"/>
    <circle cx="97.8" cy="199.9" r="2.6"/>
    <circle cx="108.8" cy="199.9" r="2.6"/>
    <circle cx="119.8" cy="199.9" r="2.6"/>
    <circle cx="130.8" cy="199.9" r="2.6"/>
    <circle cx="141.8" cy="199.9" r="2.6"/>
    <circle cx="152.8" cy="199.9" r="2.6"/>
    <circle cx="163.8" cy="199.9" r="2.6"/>
    <circle cx="174.8" cy="199.9" r="2.6"/>
    <circle cx="185.8" cy="199.9" r="2.6"/>
    <circle cx="196.8" cy="199.9" r="2.6"/>
    <circle cx="207.8" cy="199.9" r="2.6"/>
    <circle cx="218.8" cy="199.9" r="2.6"/>
    <circle cx="229.8" cy="199.9" r="2.6"/>
    <circle cx="240.8" cy="199.9" r="2.6"/>
    <circle cx="251.8" cy="199.9" r="2.6"/>
    <circle cx="262.8" cy="199.9" r="2.6"/>
    <circle cx="273.8" cy="199.9" r="2.6"/>
    <circle cx="284.8" cy="199.9" r="2.6"/>
    <circle cx="295.8" cy="199.9" r="2.6"/>
    <circle cx="306.8" cy="199.9" r="2.6"/>
    <circle cx="317.8" cy="199.9" r="2.6"/>
    <circle cx="328.8" cy="199.9" r="2.6"/>
    <circle cx="339.8" cy="199.9" r="2.6"/>
    <circle cx="350.8" cy="199.9" r="2.6"/>
    <circle cx="361.8" cy="199.9" r="2.6"/>
    <circle cx="372.8" cy="199.9" r="2.6"/>
    <circle cx="383.8" cy="199.9" r="2.6"/>
    <circle cx="394.8" cy="199.9" r="2.6"/>
    <circle cx="405.8" cy="199.9" r="2.6"/>
    <circle cx="416.8" cy="199.9" r="2.6"/>
    <circle cx="427.8" cy="199.9" r="2.6"/>
    <circle cx="70.3" cy="210.9" r="2.6"/>
    <circle cx="81.3" cy="210.9" r="2.6"/>
    <circle cx="92.3" cy="210.9" r="2.6"/>
    <circle cx="103.3" cy="210.9" r="2.6"/>
    <circle cx="114.3" cy="210.9" r="2.6"/>
    <circle cx="125.3" cy="210.9" r="2.6"/>
    <circle cx="136.3" cy="210.9" r="2.6"/>
    <circle cx="147.3" cy="210.9" r="2.6"/>
    <circle cx="158.3" cy="210.9" r="2.6"/>
    <circle cx="169.3" cy="210.9" r="2.6"/>
    <circle cx="180.3" cy="210.9" r="2.6"/>
    <circle cx="191.3" cy="210.9" r="2.6"/>
    <circle cx="202.3" cy="210.9" r="2.6"/>
    <circle cx="213.3" cy="210.9" r="2.6"/>
    <circle cx="224.3" cy="210.9" r="2.6"/>
    <circle cx="235.3" cy="210.9" r="2.6"/>
    <circle cx="246.3" cy="210.9" r="2.6"/>
    <circle cx="257.3" cy="210.9" r="2.6"/>
    <circle cx="268.3" cy="210.9" r="2.6"/>
    <circle cx="279.3" cy="210.9" r="2.6"/>
    <circle cx="290.3" cy="210.9" r="2.6"/>
    <circle cx="301.3" cy="210.9" r="2.6"/>
    <circle cx="312.3" cy="210.9" r="2.6"/>
    <circle cx="323.3" cy="210.9" r="2.6"/>
    <circle cx="334.3" cy="210.9" r="2.6"/>
    <circle cx="345.3" cy="210.9" r="2.6"/>
    <circle cx="356.3" cy="210.9" r="2.6"/>
    <circle cx="367.3" cy="210.9" r="2.6"/>
    <circle cx="378.3" cy="210.9" r="2.6"/>
    <circle cx="389.3" cy="210.9" r="2.6"/>
    <circle cx="400.3" cy="210.9" r="2.6"/>
    <circle cx="411.3" cy="210.9" r="2.6"/>
    <circle cx="444.3" cy="210.9" r="2.6"/>
    <circle cx="466.3" cy="210.9" r="2.6"/>
    <circle cx="86.8" cy="221.9" r="2.6"/>
    <circle cx="97.8" cy="221.9" r="2.6"/>
    <circle cx="108.8" cy="221.9" r="2.6"/>
    <circle cx="119.8" cy="221.9" r="2.6"/>
    <circle cx="130.8" cy="221.9" r="2.6"/>
    <circle cx="141.8" cy="221.9" r="2.6"/>
    <circle cx="152.8" cy="221.9" r="2.6"/>
    <circle cx="163.8" cy="221.9" r="2.6"/>
    <circle cx="174.8" cy="221.9" r="2.6"/>
    <circle cx="185.8" cy="221.9" r="2.6"/>
    <circle cx="196.8" cy="221.9" r="2.6"/>
    <circle cx="207.8" cy="221.9" r="2.6"/>
    <circle cx="218.8" cy="221.9" r="2.6"/>
    <circle cx="229.8" cy="221.9" r="2.6"/>
    <circle cx="240.8" cy="221.9" r="2.6"/>
    <circle cx="251.8" cy="221.9" r="2.6"/>
    <circle cx="262.8" cy="221.9" r="2.6"/>
    <circle cx="273.8" cy="221.9" r="2.6"/>
    <circle cx="284.8" cy="221.9" r="2.6"/>
    <circle cx="295.8" cy="221.9" r="2.6"/>
    <circle cx="306.8" cy="221.9" r="2.6"/>
    <circle cx="317.8" cy="221.9" r="2.6"/>
    <circle cx="328.8" cy="221.9" r="2.6"/>
    <circle cx="339.8" cy="221.9" r="2.6"/>
    <circle cx="350.8" cy="221.9" r="2.6"/>
    <circle cx="361.8" cy="221.9" r="2.6"/>
    <circle cx="372.8" cy="221.9" r="2.6"/>
    <circle cx="383.8" cy="221.9" r="2.6"/>
    <circle cx="394.8" cy="221.9" r="2.6"/>
    <circle cx="405.8" cy="221.9" r="2.6"/>
    <circle cx="416.8" cy="221.9" r="2.6"/>
    <circle cx="427.8" cy="221.9" r="2.6"/>
    <circle cx="438.8" cy="221.9" r="2.6"/>
    <circle cx="449.8" cy="221.9" r="2.6"/>
    <circle cx="460.8" cy="221.9" r="2.6"/>
    <circle cx="471.8" cy="221.9" r="2.6"/>
    <circle cx="103.3" cy="232.9" r="2.6"/>
    <circle cx="114.3" cy="232.9" r="2.6"/>
    <circle cx="125.3" cy="232.9" r="2.6"/>
    <circle cx="136.3" cy="232.9" r="2.6"/>
    <circle cx="147.3" cy="232.9" r="2.6"/>
    <circle cx="158.3" cy="232.9" r="2.6"/>
    <circle cx="169.3" cy="232.9" r="2.6"/>
    <circle cx="180.3" cy="232.9" r="2.6"/>
    <circle cx="191.3" cy="232.9" r="2.6"/>
    <circle cx="202.3" cy="232.9" r="2.6"/>
    <circle cx="213.3" cy="232.9" r="2.6"/>
    <circle cx="224.3" cy="232.9" r="2.6"/>
    <circle cx="235.3" cy="232.9" r="2.6"/>
    <circle cx="246.3" cy="232.9" r="2.6"/>
    <circle cx="257.3" cy="232.9" r="2.6"/>
    <circle cx="268.3" cy="232.9" r="2.6"/>
    <circle cx="279.3" cy="232.9" r="2.6"/>
    <circle cx="290.3" cy="232.9" r="2.6"/>
    <circle cx="301.3" cy="232.9" r="2.6"/>
    <circle cx="312.3" cy="232.9" r="2.6"/>
    <circle cx="323.3" cy="232.9" r="2.6"/>
    <circle cx="334.3" cy="232.9" r="2.6"/>
    <circle cx="345.3" cy="232.9" r="2.6"/>
    <circle cx="356.3" cy="232.9" r="2.6"/>
    <circle cx="367.3" cy="232.9" r="2.6"/>
    <circle cx="378.3" cy="232.9" r="2.6"/>
    <circle cx="389.3" cy="232.9" r="2.6"/>
    <circle cx="400.3" cy="232.9" r="2.6"/>
    <circle cx="422.3" cy="232.9" r="2.6"/>
    <circle cx="433.3" cy="232.9" r="2.6"/>
    <circle cx="444.3" cy="232.9" r="2.6"/>
    <circle cx="455.3" cy="232.9" r="2.6"/>
    <circle cx="466.3" cy="232.9" r="2.6"/>
    <circle cx="477.3" cy="232.9" r="2.6"/>
    <circle cx="86.8" cy="243.9" r="2.6"/>
    <circle cx="97.8" cy="243.9" r="2.6"/>
    <circle cx="108.8" cy="243.9" r="2.6"/>
    <circle cx="119.8" cy="243.9" r="2.6"/>
    <circle cx="130.8" cy="243.9" r="2.6"/>
    <circle cx="141.8" cy="243.9" r="2.6"/>
    <circle cx="152.8" cy="243.9" r="2.6"/>
    <circle cx="163.8" cy="243.9" r="2.6"/>
    <circle cx="174.8" cy="243.9" r="2.6"/>
    <circle cx="185.8" cy="243.9" r="2.6"/>
    <circle cx="196.8" cy="243.9" r="2.6"/>
    <circle cx="207.8" cy="243.9" r="2.6"/>
    <circle cx="218.8" cy="243.9" r="2.6"/>
    <circle cx="229.8" cy="243.9" r="2.6"/>
    <circle cx="240.8" cy="243.9" r="2.6"/>
    <circle cx="251.8" cy="243.9" r="2.6"/>
    <circle cx="262.8" cy="243.9" r="2.6"/>
    <circle cx="273.8" cy="243.9" r="2.6"/>
    <circle cx="284.8" cy="243.9" r="2.6"/>
    <circle cx="295.8" cy="243.9" r="2.6"/>
    <circle cx="306.8" cy="243.9" r="2.6"/>
    <circle cx="317.8" cy="243.9" r="2.6"/>
    <circle cx="328.8" cy="243.9" r="2.6"/>
    <circle cx="339.8" cy="243.9" r="2.6"/>
    <circle cx="350.8" cy="243.9" r="2.6"/>
    <circle cx="361.8" cy="243.9" r="2.6"/>
    <circle cx="372.8" cy="243.9" r="2.6"/>
    <circle cx="383.8" cy="243.9" r="2.6"/>
    <circle cx="394.8" cy="243.9" r="2.6"/>
    <circle cx="405.8" cy="243.9" r="2.6"/>
    <circle cx="416.8" cy="243.9" r="2.6"/>
    <circle cx="427.8" cy="243.9" r="2.6"/>
    <circle cx="438.8" cy="243.9" r="2.6"/>
    <circle cx="449.8" cy="243.9" r="2.6"/>
    <circle cx="471.8" cy="243.9" r="2.6"/>
    <circle cx="482.8" cy="243.9" r="2.6"/>
    <circle cx="48.3" cy="254.9" r="2.6"/>
    <circle cx="59.3" cy="254.9" r="2.6"/>
    <circle cx="70.3" cy="254.9" r="2.6"/>
    <circle cx="81.3" cy="254.9" r="2.6"/>
    <circle cx="92.3" cy="254.9" r="2.6"/>
    <circle cx="103.3" cy="254.9" r="2.6"/>
    <circle cx="114.3" cy="254.9" r="2.6"/>
    <circle cx="125.3" cy="254.9" r="2.6"/>
    <circle cx="136.3" cy="254.9" r="2.6"/>
    <circle cx="147.3" cy="254.9" r="2.6"/>
    <circle cx="158.3" cy="254.9" r="2.6"/>
    <circle cx="169.3" cy="254.9" r="2.6"/>
    <circle cx="180.3" cy="254.9" r="2.6"/>
    <circle cx="191.3" cy="254.9" r="2.6"/>
    <circle cx="202.3" cy="254.9" r="2.6"/>
    <circle cx="213.3" cy="254.9" r="2.6"/>
    <circle cx="224.3" cy="254.9" r="2.6"/>
    <circle cx="235.3" cy="254.9" r="2.6"/>
    <circle cx="246.3" cy="254.9" r="2.6"/>
    <circle cx="257.3" cy="254.9" r="2.6"/>
    <circle cx="279.3" cy="254.9" r="2.6"/>
    <circle cx="290.3" cy="254.9" r="2.6"/>
    <circle cx="301.3" cy="254.9" r="2.6"/>
    <circle cx="312.3" cy="254.9" r="2.6"/>
    <circle cx="323.3" cy="254.9" r="2.6"/>
    <circle cx="334.3" cy="254.9" r="2.6"/>
    <circle cx="345.3" cy="254.9" r="2.6"/>
    <circle cx="356.3" cy="254.9" r="2.6"/>
    <circle cx="367.3" cy="254.9" r="2.6"/>
    <circle cx="378.3" cy="254.9" r="2.6"/>
    <circle cx="400.3" cy="254.9" r="2.6"/>
    <circle cx="411.3" cy="254.9" r="2.6"/>
    <circle cx="422.3" cy="254.9" r="2.6"/>
    <circle cx="433.3" cy="254.9" r="2.6"/>
    <circle cx="444.3" cy="254.9" r="2.6"/>
    <circle cx="455.3" cy="254.9" r="2.6"/>
    <circle cx="488.3" cy="254.9" r="2.6"/>
    <circle cx="42.8" cy="265.9" r="2.6"/>
    <circle cx="53.8" cy="265.9" r="2.6"/>
    <circle cx="64.8" cy="265.9" r="2.6"/>
    <circle cx="75.8" cy="265.9" r="2.6"/>
    <circle cx="86.8" cy="265.9" r="2.6"/>
    <circle cx="97.8" cy="265.9" r="2.6"/>
    <circle cx="108.8" cy="265.9" r="2.6"/>
    <circle cx="119.8" cy="265.9" r="2.6"/>
    <circle cx="130.8" cy="265.9" r="2.6"/>
    <circle cx="141.8" cy="265.9" r="2.6"/>
    <circle cx="152.8" cy="265.9" r="2.6"/>
    <circle cx="163.8" cy="265.9" r="2.6"/>
    <circle cx="174.8" cy="265.9" r="2.6"/>
    <circle cx="185.8" cy="265.9" r="2.6"/>
    <circle cx="196.8" cy="265.9" r="2.6"/>
    <circle cx="207.8" cy="265.9" r="2.6"/>
    <circle cx="218.8" cy="265.9" r="2.6"/>
    <circle cx="229.8" cy="265.9" r="2.6"/>
    <circle cx="240.8" cy="265.9" r="2.6"/>
    <circle cx="251.8" cy="265.9" r="2.6"/>
    <circle cx="262.8" cy="265.9" r="2.6"/>
    <circle cx="273.8" cy="265.9" r="2.6"/>
    <circle cx="284.8" cy="265.9" r="2.6"/>
    <circle cx="295.8" cy="265.9" r="2.6"/>
    <circle cx="306.8" cy="265.9" r="2.6"/>
    <circle cx="317.8" cy="265.9" r="2.6"/>
    <circle cx="328.8" cy="265.9" r="2.6"/>
    <circle cx="339.8" cy="265.9" r="2.6"/>
    <circle cx="350.8" cy="265.9" r="2.6"/>
    <circle cx="372.8" cy="265.9" r="2.6"/>
    <circle cx="383.8" cy="265.9" r="2.6"/>
    <circle cx="394.8" cy="265.9" r="2.6"/>
    <circle cx="405.8" cy="265.9" r="2.6"/>
    <circle cx="416.8" cy="265.9" r="2.6"/>
    <circle cx="427.8" cy="265.9" r="2.6"/>
    <circle cx="438.8" cy="265.9" r="2.6"/>
    <circle cx="449.8" cy="265.9" r="2.6"/>
    <circle cx="460.8" cy="265.9" r="2.6"/>
    <circle cx="482.8" cy="265.9" r="2.6"/>
    <circle cx="493.8" cy="265.9" r="2.6"/>
    <circle cx="26.3" cy="276.9" r="2.6"/>
    <circle cx="37.3" cy="276.9" r="2.6"/>
    <circle cx="48.3" cy="276.9" r="2.6"/>
    <circle cx="59.3" cy="276.9" r="2.6"/>
    <circle cx="70.3" cy="276.9" r="2.6"/>
    <circle cx="81.3" cy="276.9" r="2.6"/>
    <circle cx="92.3" cy="276.9" r="2.6"/>
    <circle cx="103.3" cy="276.9" r="2.6"/>
    <circle cx="114.3" cy="276.9" r="2.6"/>
    <circle cx="125.3" cy="276.9" r="2.6"/>
    <circle cx="136.3" cy="276.9" r="2.6"/>
    <circle cx="147.3" cy="276.9" r="2.6"/>
    <circle cx="158.3" cy="276.9" r="2.6"/>
    <circle cx="169.3" cy="276.9" r="2.6"/>
    <circle cx="180.3" cy="276.9" r="2.6"/>
    <circle cx="191.3" cy="276.9" r="2.6"/>
    <circle cx="202.3" cy="276.9" r="2.6"/>
    <circle cx="213.3" cy="276.9" r="2.6"/>
    <circle cx="224.3" cy="276.9" r="2.6"/>
    <circle cx="235.3" cy="276.9" r="2.6"/>
    <circle cx="246.3" cy="276.9" r="2.6"/>
    <circle cx="257.3" cy="276.9" r="2.6"/>
    <circle cx="268.3" cy="276.9" r="2.6"/>
    <circle cx="279.3" cy="276.9" r="2.6"/>
    <circle cx="290.3" cy="276.9" r="2.6"/>
    <circle cx="301.3" cy="276.9" r="2.6"/>
    <circle cx="312.3" cy="276.9" r="2.6"/>
    <circle cx="323.3" cy="276.9" r="2.6"/>
    <circle cx="356.3" cy="276.9" r="2.6"/>
    <circle cx="367.3" cy="276.9" r="2.6"/>
    <circle cx="378.3" cy="276.9" r="2.6"/>
    <circle cx="389.3" cy="276.9" r="2.6"/>
    <circle cx="400.3" cy="276.9" r="2.6"/>
    <circle cx="411.3" cy="276.9" r="2.6"/>
    <circle cx="422.3" cy="276.9" r="2.6"/>
    <circle cx="433.3" cy="276.9" r="2.6"/>
    <circle cx="444.3" cy="276.9" r="2.6"/>
    <circle cx="455.3" cy="276.9" r="2.6"/>
    <circle cx="488.3" cy="276.9" r="2.6"/>
    <circle cx="31.8" cy="287.9" r="2.6"/>
    <circle cx="42.8" cy="287.9" r="2.6"/>
    <circle cx="53.8" cy="287.9" r="2.6"/>
    <circle cx="64.8" cy="287.9" r="2.6"/>
    <circle cx="75.8" cy="287.9" r="2.6"/>
    <circle cx="86.8" cy="287.9" r="2.6"/>
    <circle cx="97.8" cy="287.9" r="2.6"/>
    <circle cx="108.8" cy="287.9" r="2.6"/>
    <circle cx="119.8" cy="287.9" r="2.6"/>
    <circle cx="130.8" cy="287.9" r="2.6"/>
    <circle cx="141.8" cy="287.9" r="2.6"/>
    <circle cx="152.8" cy="287.9" r="2.6"/>
    <circle cx="163.8" cy="287.9" r="2.6"/>
    <circle cx="174.8" cy="287.9" r="2.6"/>
    <circle cx="185.8" cy="287.9" r="2.6"/>
    <circle cx="196.8" cy="287.9" r="2.6"/>
    <circle cx="207.8" cy="287.9" r="2.6"/>
    <circle cx="229.8" cy="287.9" r="2.6"/>
    <circle cx="240.8" cy="287.9" r="2.6"/>
    <circle cx="251.8" cy="287.9" r="2.6"/>
    <circle cx="262.8" cy="287.9" r="2.6"/>
    <circle cx="273.8" cy="287.9" r="2.6"/>
    <circle cx="284.8" cy="287.9" r="2.6"/>
    <circle cx="295.8" cy="287.9" r="2.6"/>
    <circle cx="306.8" cy="287.9" r="2.6"/>
    <circle cx="328.8" cy="287.9" r="2.6"/>
    <circle cx="339.8" cy="287.9" r="2.6"/>
    <circle cx="350.8" cy="287.9" r="2.6"/>
    <circle cx="361.8" cy="287.9" r="2.6"/>
    <circle cx="372.8" cy="287.9" r="2.6"/>
    <circle cx="383.8" cy="287.9" r="2.6"/>
    <circle cx="394.8" cy="287.9" r="2.6"/>
    <circle cx="405.8" cy="287.9" r="2.6"/>
    <circle cx="416.8" cy="287.9" r="2.6"/>
    <circle cx="427.8" cy="287.9" r="2.6"/>
    <circle cx="438.8" cy="287.9" r="2.6"/>
    <circle cx="449.8" cy="287.9" r="2.6"/>
    <circle cx="460.8" cy="287.9" r="2.6"/>
    <circle cx="482.8" cy="287.9" r="2.6"/>
    <circle cx="37.3" cy="298.9" r="2.6"/>
    <circle cx="48.3" cy="298.9" r="2.6"/>
    <circle cx="59.3" cy="298.9" r="2.6"/>
    <circle cx="70.3" cy="298.9" r="2.6"/>
    <circle cx="81.3" cy="298.9" r="2.6"/>
    <circle cx="92.3" cy="298.9" r="2.6"/>
    <circle cx="103.3" cy="298.9" r="2.6"/>
    <circle cx="114.3" cy="298.9" r="2.6"/>
    <circle cx="125.3" cy="298.9" r="2.6"/>
    <circle cx="136.3" cy="298.9" r="2.6"/>
    <circle cx="147.3" cy="298.9" r="2.6"/>
    <circle cx="158.3" cy="298.9" r="2.6"/>
    <circle cx="169.3" cy="298.9" r="2.6"/>
    <circle cx="180.3" cy="298.9" r="2.6"/>
    <circle cx="191.3" cy="298.9" r="2.6"/>
    <circle cx="202.3" cy="298.9" r="2.6"/>
    <circle cx="246.3" cy="298.9" r="2.6"/>
    <circle cx="257.3" cy="298.9" r="2.6"/>
    <circle cx="268.3" cy="298.9" r="2.6"/>
    <circle cx="279.3" cy="298.9" r="2.6"/>
    <circle cx="290.3" cy="298.9" r="2.6"/>
    <circle cx="301.3" cy="298.9" r="2.6"/>
    <circle cx="312.3" cy="298.9" r="2.6"/>
    <circle cx="323.3" cy="298.9" r="2.6"/>
    <circle cx="334.3" cy="298.9" r="2.6"/>
    <circle cx="345.3" cy="298.9" r="2.6"/>
    <circle cx="356.3" cy="298.9" r="2.6"/>
    <circle cx="367.3" cy="298.9" r="2.6"/>
    <circle cx="378.3" cy="298.9" r="2.6"/>
    <circle cx="389.3" cy="298.9" r="2.6"/>
    <circle cx="400.3" cy="298.9" r="2.6"/>
    <circle cx="411.3" cy="298.9" r="2.6"/>
    <circle cx="422.3" cy="298.9" r="2.6"/>
    <circle cx="433.3" cy="298.9" r="2.6"/>
    <circle cx="444.3" cy="298.9" r="2.6"/>
    <circle cx="455.3" cy="298.9" r="2.6"/>
    <circle cx="488.3" cy="298.9" r="2.6"/>
    <circle cx="53.8" cy="309.9" r="2.6"/>
    <circle cx="64.8" cy="309.9" r="2.6"/>
    <circle cx="75.8" cy="309.9" r="2.6"/>
    <circle cx="86.8" cy="309.9" r="2.6"/>
    <circle cx="97.8" cy="309.9" r="2.6"/>
    <circle cx="108.8" cy="309.9" r="2.6"/>
    <circle cx="119.8" cy="309.9" r="2.6"/>
    <circle cx="130.8" cy="309.9" r="2.6"/>
    <circle cx="141.8" cy="309.9" r="2.6"/>
    <circle cx="152.8" cy="309.9" r="2.6"/>
    <circle cx="163.8" cy="309.9" r="2.6"/>
    <circle cx="174.8" cy="309.9" r="2.6"/>
    <circle cx="185.8" cy="309.9" r="2.6"/>
    <circle cx="196.8" cy="309.9" r="2.6"/>
    <circle cx="251.8" cy="309.9" r="2.6"/>
    <circle cx="262.8" cy="309.9" r="2.6"/>
    <circle cx="273.8" cy="309.9" r="2.6"/>
    <circle cx="295.8" cy="309.9" r="2.6"/>
    <circle cx="306.8" cy="309.9" r="2.6"/>
    <circle cx="317.8" cy="309.9" r="2.6"/>
    <circle cx="328.8" cy="309.9" r="2.6"/>
    <circle cx="339.8" cy="309.9" r="2.6"/>
    <circle cx="361.8" cy="309.9" r="2.6"/>
    <circle cx="372.8" cy="309.9" r="2.6"/>
    <circle cx="383.8" cy="309.9" r="2.6"/>
    <circle cx="394.8" cy="309.9" r="2.6"/>
    <circle cx="405.8" cy="309.9" r="2.6"/>
    <circle cx="416.8" cy="309.9" r="2.6"/>
    <circle cx="427.8" cy="309.9" r="2.6"/>
    <circle cx="438.8" cy="309.9" r="2.6"/>
    <circle cx="449.8" cy="309.9" r="2.6"/>
    <circle cx="460.8" cy="309.9" r="2.6"/>
    <circle cx="471.8" cy="309.9" r="2.6"/>
    <circle cx="70.3" cy="320.9" r="2.6"/>
    <circle cx="81.3" cy="320.9" r="2.6"/>
    <circle cx="92.3" cy="320.9" r="2.6"/>
    <circle cx="103.3" cy="320.9" r="2.6"/>
    <circle cx="114.3" cy="320.9" r="2.6"/>
    <circle cx="125.3" cy="320.9" r="2.6"/>
    <circle cx="136.3" cy="320.9" r="2.6"/>
    <circle cx="147.3" cy="320.9" r="2.6"/>
    <circle cx="158.3" cy="320.9" r="2.6"/>
    <circle cx="169.3" cy="320.9" r="2.6"/>
    <circle cx="180.3" cy="320.9" r="2.6"/>
    <circle cx="257.3" cy="320.9" r="2.6"/>
    <circle cx="268.3" cy="320.9" r="2.6"/>
    <circle cx="279.3" cy="320.9" r="2.6"/>
    <circle cx="290.3" cy="320.9" r="2.6"/>
    <circle cx="301.3" cy="320.9" r="2.6"/>
    <circle cx="312.3" cy="320.9" r="2.6"/>
    <circle cx="323.3" cy="320.9" r="2.6"/>
    <circle cx="334.3" cy="320.9" r="2.6"/>
    <circle cx="345.3" cy="320.9" r="2.6"/>
    <circle cx="356.3" cy="320.9" r="2.6"/>
    <circle cx="367.3" cy="320.9" r="2.6"/>
    <circle cx="378.3" cy="320.9" r="2.6"/>
    <circle cx="389.3" cy="320.9" r="2.6"/>
    <circle cx="400.3" cy="320.9" r="2.6"/>
    <circle cx="411.3" cy="320.9" r="2.6"/>
    <circle cx="422.3" cy="320.9" r="2.6"/>
    <circle cx="433.3" cy="320.9" r="2.6"/>
    <circle cx="444.3" cy="320.9" r="2.6"/>
    <circle cx="455.3" cy="320.9" r="2.6"/>
    <circle cx="466.3" cy="320.9" r="2.6"/>
    <circle cx="477.3" cy="320.9" r="2.6"/>
    <circle cx="75.8" cy="331.9" r="2.6"/>
    <circle cx="86.8" cy="331.9" r="2.6"/>
    <circle cx="97.8" cy="331.9" r="2.6"/>
    <circle cx="108.8" cy="331.9" r="2.6"/>
    <circle cx="119.8" cy="331.9" r="2.6"/>
    <circle cx="130.8" cy="331.9" r="2.6"/>
    <circle cx="141.8" cy="331.9" r="2.6"/>
    <circle cx="152.8" cy="331.9" r="2.6"/>
    <circle cx="163.8" cy="331.9" r="2.6"/>
    <circle cx="174.8" cy="331.9" r="2.6"/>
    <circle cx="185.8" cy="331.9" r="2.6"/>
    <circle cx="251.8" cy="331.9" r="2.6"/>
    <circle cx="262.8" cy="331.9" r="2.6"/>
    <circle cx="273.8" cy="331.9" r="2.6"/>
    <circle cx="284.8" cy="331.9" r="2.6"/>
    <circle cx="295.8" cy="331.9" r="2.6"/>
    <circle cx="306.8" cy="331.9" r="2.6"/>
    <circle cx="317.8" cy="331.9" r="2.6"/>
    <circle cx="328.8" cy="331.9" r="2.6"/>
    <circle cx="339.8" cy="331.9" r="2.6"/>
    <circle cx="350.8" cy="331.9" r="2.6"/>
    <circle cx="361.8" cy="331.9" r="2.6"/>
    <circle cx="372.8" cy="331.9" r="2.6"/>
    <circle cx="383.8" cy="331.9" r="2.6"/>
    <circle cx="394.8" cy="331.9" r="2.6"/>
    <circle cx="405.8" cy="331.9" r="2.6"/>
    <circle cx="416.8" cy="331.9" r="2.6"/>
    <circle cx="427.8" cy="331.9" r="2.6"/>
    <circle cx="438.8" cy="331.9" r="2.6"/>
    <circle cx="449.8" cy="331.9" r="2.6"/>
    <circle cx="460.8" cy="331.9" r="2.6"/>
    <circle cx="471.8" cy="331.9" r="2.6"/>
    <circle cx="81.3" cy="342.9" r="2.6"/>
    <circle cx="92.3" cy="342.9" r="2.6"/>
    <circle cx="103.3" cy="342.9" r="2.6"/>
    <circle cx="114.3" cy="342.9" r="2.6"/>
    <circle cx="125.3" cy="342.9" r="2.6"/>
    <circle cx="136.3" cy="342.9" r="2.6"/>
    <circle cx="147.3" cy="342.9" r="2.6"/>
    <circle cx="158.3" cy="342.9" r="2.6"/>
    <circle cx="169.3" cy="342.9" r="2.6"/>
    <circle cx="180.3" cy="342.9" r="2.6"/>
    <circle cx="191.3" cy="342.9" r="2.6"/>
    <circle cx="257.3" cy="342.9" r="2.6"/>
    <circle cx="268.3" cy="342.9" r="2.6"/>
    <circle cx="279.3" cy="342.9" r="2.6"/>
    <circle cx="290.3" cy="342.9" r="2.6"/>
    <circle cx="301.3" cy="342.9" r="2.6"/>
    <circle cx="312.3" cy="342.9" r="2.6"/>
    <circle cx="323.3" cy="342.9" r="2.6"/>
    <circle cx="334.3" cy="342.9" r="2.6"/>
    <circle cx="345.3" cy="342.9" r="2.6"/>
    <circle cx="356.3" cy="342.9" r="2.6"/>
    <circle cx="367.3" cy="342.9" r="2.6"/>
    <circle cx="378.3" cy="342.9" r="2.6"/>
    <circle cx="389.3" cy="342.9" r="2.6"/>
    <circle cx="400.3" cy="342.9" r="2.6"/>
    <circle cx="411.3" cy="342.9" r="2.6"/>
    <circle cx="422.3" cy="342.9" r="2.6"/>
    <circle cx="108.8" cy="353.9" r="2.6"/>
    <circle cx="119.8" cy="353.9" r="2.6"/>
    <circle cx="130.8" cy="353.9" r="2.6"/>
    <circle cx="141.8" cy="353.9" r="2.6"/>
    <circle cx="152.8" cy="353.9" r="2.6"/>
    <circle cx="163.8" cy="353.9" r="2.6"/>
    <circle cx="174.8" cy="353.9" r="2.6"/>
    <circle cx="273.8" cy="353.9" r="2.6"/>
    <circle cx="284.8" cy="353.9" r="2.6"/>
    <circle cx="295.8" cy="353.9" r="2.6"/>
    <circle cx="306.8" cy="353.9" r="2.6"/>
    <circle cx="317.8" cy="353.9" r="2.6"/>
    <circle cx="328.8" cy="353.9" r="2.6"/>
    <circle cx="339.8" cy="353.9" r="2.6"/>
    <circle cx="350.8" cy="353.9" r="2.6"/>
    <circle cx="361.8" cy="353.9" r="2.6"/>
    <circle cx="372.8" cy="353.9" r="2.6"/>
    <circle cx="383.8" cy="353.9" r="2.6"/>
    <circle cx="394.8" cy="353.9" r="2.6"/>
    <circle cx="405.8" cy="353.9" r="2.6"/>
    <circle cx="416.8" cy="353.9" r="2.6"/>
    <circle cx="125.3" cy="364.9" r="2.6"/>
    <circle cx="136.3" cy="364.9" r="2.6"/>
    <circle cx="147.3" cy="364.9" r="2.6"/>
    <circle cx="158.3" cy="364.9" r="2.6"/>
    <circle cx="290.3" cy="364.9" r="2.6"/>
    <circle cx="301.3" cy="364.9" r="2.6"/>
    <circle cx="312.3" cy="364.9" r="2.6"/>
    <circle cx="323.3" cy="364.9" r="2.6"/>
    <circle cx="334.3" cy="364.9" r="2.6"/>
    <circle cx="345.3" cy="364.9" r="2.6"/>
    <circle cx="356.3" cy="364.9" r="2.6"/>
    <circle cx="367.3" cy="364.9" r="2.6"/>
    <circle cx="378.3" cy="364.9" r="2.6"/>
    <circle cx="389.3" cy="364.9" r="2.6"/>
    <circle cx="400.3" cy="364.9" r="2.6"/>
    <circle cx="411.3" cy="364.9" r="2.6"/>
    <circle cx="174.8" cy="375.9" r="2.6"/>
    <circle cx="295.8" cy="375.9" r="2.6"/>
    <circle cx="306.8" cy="375.9" r="2.6"/>
    <circle cx="317.8" cy="375.9" r="2.6"/>
    <circle cx="328.8" cy="375.9" r="2.6"/>
    <circle cx="339.8" cy="375.9" r="2.6"/>
    <circle cx="350.8" cy="375.9" r="2.6"/>
    <circle cx="361.8" cy="375.9" r="2.6"/>
    <circle cx="372.8" cy="375.9" r="2.6"/>
    <circle cx="383.8" cy="375.9" r="2.6"/>
    <circle cx="394.8" cy="375.9" r="2.6"/>
    <circle cx="405.8" cy="375.9" r="2.6"/>
    <circle cx="416.8" cy="375.9" r="2.6"/>
    <circle cx="290.3" cy="386.9" r="2.6"/>
    <circle cx="301.3" cy="386.9" r="2.6"/>
    <circle cx="312.3" cy="386.9" r="2.6"/>
    <circle cx="323.3" cy="386.9" r="2.6"/>
    <circle cx="334.3" cy="386.9" r="2.6"/>
    <circle cx="367.3" cy="386.9" r="2.6"/>
    <circle cx="378.3" cy="386.9" r="2.6"/>
    <circle cx="389.3" cy="386.9" r="2.6"/>
    <circle cx="400.3" cy="386.9" r="2.6"/>
    <circle cx="411.3" cy="386.9" r="2.6"/>
    <circle cx="295.8" cy="397.9" r="2.6"/>
    <circle cx="394.8" cy="397.9" r="2.6"/>
  </g>
  <g fill="#3A4A66">
    <circle cx="284.8" cy="309.9" r="4.4"/>
    <circle cx="350.8" cy="309.9" r="4.4"/>
    <circle cx="411.3" cy="232.9" r="4.4"/>
    <circle cx="334.3" cy="276.9" r="4.4"/>
    <circle cx="389.3" cy="254.9" r="4.4"/>
    <circle cx="268.3" cy="254.9" r="4.4"/>
    <circle cx="345.3" cy="276.9" r="4.4"/>
    <circle cx="361.8" cy="265.9" r="4.4"/>
    <circle cx="317.8" cy="287.9" r="4.4"/>
  </g>
</svg>
